<svg width="24" height="25" viewBox="0 0 24 25" fill="none" xmlns="http://www.w3.org/2000/svg">
<path fill-rule="evenodd" clip-rule="evenodd" d="M1 12.6406C1 6.56549 5.92487 1.64062 12 1.64062C18.0751 1.64062 23 6.56549 23 12.6406C23 18.7158 18.0751 23.6406 12 23.6406C5.92487 23.6406 1 18.7158 1 12.6406ZM12 3.64062C7.02943 3.64062 3 7.67006 3 12.6406C3 17.6112 7.02943 21.6406 12 21.6406C16.9706 21.6406 21 17.6112 21 12.6406C21 7.67006 16.9706 3.64062 12 3.64062ZM12 7.64062C12.5523 7.64062 13 8.08834 13 8.64062V11.6406H16C16.5523 11.6406 17 12.0883 17 12.6406C17 13.1929 16.5523 13.6406 16 13.6406H13V16.6406C13 17.1929 12.5523 17.6406 12 17.6406C11.4477 17.6406 11 17.1929 11 16.6406V13.6406H8C7.44772 13.6406 7 13.1929 7 12.6406C7 12.0883 7.44772 11.6406 8 11.6406H11V8.64062C11 8.08834 11.4477 7.64062 12 7.64062Z" fill="#1A8917"/>
<path opacity="0.3" fill-rule="evenodd" clip-rule="evenodd" d="M3 12.6406C3 7.67006 7.02943 3.64062 12 3.64062C16.9706 3.64062 21 7.67006 21 12.6406C21 17.6112 16.9706 21.6406 12 21.6406C7.02943 21.6406 3 17.6112 3 12.6406ZM12 7.64062C12.5523 7.64062 13 8.08834 13 8.64062V11.6406H16C16.5523 11.6406 17 12.0883 17 12.6406C17 13.1929 16.5523 13.6406 16 13.6406H13V16.6406C13 17.1929 12.5523 17.6406 12 17.6406C11.4477 17.6406 11 17.1929 11 16.6406V13.6406H8C7.44772 13.6406 7 13.1929 7 12.6406C7 12.0883 7.44772 11.6406 8 11.6406H11V8.64062C11 8.08834 11.4477 7.64062 12 7.64062Z" fill="white"/>
</svg>
