<svg width="24" height="25" viewBox="0 0 24 25" fill="none" xmlns="http://www.w3.org/2000/svg">
<path d="M13.5 18.0005L11.5 20.0005C9.56701 21.9335 6.43301 21.9335 4.50001 20.0005C2.56701 18.0675 2.56701 14.9335 4.50001 13.0005L6.50001 11.0005C8.43301 9.06753 11.567 9.06753 13.5 11.0005C13.8064 11.3069 14.0642 11.6434 14.2734 12.0005M10.5 7.00053L12.5 5.00053C14.433 3.06753 17.567 3.06753 19.5 5.00053C21.433 6.93353 21.433 10.0675 19.5 12.0005L17.5 14.0005C15.567 15.9335 12.433 15.9335 10.5 14.0005C10.1937 13.6942 9.93586 13.3577 9.72661 13.0005" stroke="white" stroke-width="1.8" stroke-linecap="round" stroke-linejoin="round"/>
</svg>
