<svg width="24" height="25" viewBox="0 0 24 25" fill="none" xmlns="http://www.w3.org/2000/svg">
<path d="M13.5 17.6412L11.5 19.6412C9.56701 21.5742 6.43301 21.5742 4.50001 19.6412C2.56701 17.7082 2.56701 14.5742 4.50001 12.6412L6.50001 10.6412C8.43301 8.70816 11.567 8.70816 13.5 10.6412C13.8064 10.9475 14.0642 11.284 14.2734 11.6412M10.5 6.64115L12.5 4.64115C14.433 2.70816 17.567 2.70816 19.5 4.64116C21.433 6.57415 21.433 9.70816 19.5 11.6412L17.5 13.6412C15.567 15.5742 12.433 15.5742 10.5 13.6412C10.1937 13.3348 9.93586 12.9983 9.72661 12.6412" stroke="#1A8917" stroke-width="1.8" stroke-linecap="round" stroke-linejoin="round"/>
</svg>
