<svg width="24" height="24" viewBox="0 0 24 24" fill="none" xmlns="http://www.w3.org/2000/svg">
<path d="M4 2C2.89543 2 2 2.89543 2 4V8C2 8.55228 2.44772 9 3 9C3.55228 9 4 8.55228 4 8V4H8C8.55228 4 9 3.55228 9 3C9 2.44772 8.55228 2 8 2H4Z" fill="#EAEBF0"/>
<path d="M4 16C4 15.4477 3.55228 15 3 15C2.44772 15 2 15.4477 2 16V20C2 21.1046 2.89544 22 4 22H8C8.55228 22 9 21.5523 9 21C9 20.4477 8.55228 20 8 20H4V16Z" fill="#EAEBF0"/>
<path d="M21 15C21.5523 15 22 15.4477 22 16V20C22 21.1046 21.1046 22 20 22H16C15.4477 22 15 21.5523 15 21C15 20.4477 15.4477 20 16 20H20V16C20 15.4477 20.4477 15 21 15Z" fill="#EAEBF0"/>
<path d="M16 2C15.4477 2 15 2.44772 15 3C15 3.55228 15.4477 4 16 4H20V8C20 8.55228 20.4477 9 21 9C21.5523 9 22 8.55228 22 8V4C22 2.89544 21.1046 2 20 2H16Z" fill="#EAEBF0"/>
<path d="M7 12C7 11.4477 7.44772 11 8 11H11V8C11 7.44772 11.4477 7 12 7C12.5523 7 13 7.44772 13 8V11H16C16.5523 11 17 11.4477 17 12C17 12.5523 16.5523 13 16 13H13V16C13 16.5523 12.5523 17 12 17C11.4477 17 11 16.5523 11 16V13H8C7.44772 13 7 12.5523 7 12Z" fill="#EAEBF0"/>
</svg>
