<svg width="24" height="24" viewBox="0 0 24 24" fill="none" xmlns="http://www.w3.org/2000/svg">
<path d="M20.0505 10.6305L15.3805 8.62055L14.3405 8.18055C14.1805 8.10055 14.0405 7.89055 14.0405 7.71055V4.65055C14.0405 3.69055 13.3305 2.55055 12.4705 2.11055C12.1705 1.96055 11.8105 1.96055 11.5105 2.11055C10.6605 2.55055 9.95055 3.70055 9.95055 4.66055V7.72055C9.95055 7.90055 9.81055 8.11055 9.65055 8.19055L3.95055 10.6405C3.32055 10.9005 2.81055 11.6905 2.81055 12.3705V13.6905C2.81055 14.5405 3.45055 14.9605 4.24055 14.6205L9.25055 12.4605C9.64055 12.2905 9.96055 12.5005 9.96055 12.9305V14.0405V15.8405C9.96055 16.0705 9.83055 16.4005 9.67055 16.5605L7.35055 18.8905C7.11055 19.1305 7.00055 19.6005 7.11055 19.9405L7.56055 21.3005C7.74055 21.8905 8.41055 22.1705 8.96055 21.8905L11.3405 19.8905C11.7005 19.5805 12.2905 19.5805 12.6505 19.8905L15.0305 21.8905C15.5805 22.1605 16.2505 21.8905 16.4505 21.3005L16.9005 19.9405C17.0105 19.6105 16.9005 19.1305 16.6605 18.8905L14.3405 16.5605C14.1705 16.4005 14.0405 16.0705 14.0405 15.8405V12.9305C14.0405 12.5005 14.3505 12.3005 14.7505 12.4605L19.7605 14.6205C20.5505 14.9605 21.1905 14.5405 21.1905 13.6905V12.3705C21.1905 11.6905 20.6805 10.9005 20.0505 10.6305Z" fill="#292D32"/>
</svg>
