<svg width="24" height="25" viewBox="0 0 24 25" fill="none" xmlns="http://www.w3.org/2000/svg">
<path d="M12 23.0357C13.6569 23.0357 15 21.6926 15 20.0357C15 20.0076 14.9996 19.9796 14.9988 19.9517C14.9922 19.7097 14.7823 19.5337 14.5403 19.531L9.47169 19.4735C9.22965 19.4707 9.01585 19.6419 9.00379 19.8837C9.00127 19.934 9 19.9847 9 20.0357C9 21.6926 10.3431 23.0357 12 23.0357Z" fill="#444444"/>
<path d="M5 9.53516C5 5.66916 8.13401 2.03516 12 2.03516C15.866 2.03516 19 5.66916 19 9.53516V11.9958C19 13.293 19.5547 14.5282 20.5242 15.39C21.5645 16.3148 20.9104 18.0352 19.5185 18.0352H4.48147C3.08955 18.0352 2.43545 16.3148 3.47579 15.39C4.4453 14.5282 5 13.293 5 11.9958V9.53516Z" fill="#444444"/>
</svg>
