<svg width="16" height="17" viewBox="0 0 16 17" fill="none" xmlns="http://www.w3.org/2000/svg">
<path d="M2.11328 5.27148L7.99994 8.67814L13.8466 5.29146" stroke="#1A8917" stroke-width="1.2" stroke-linecap="round" stroke-linejoin="round"/>
<path d="M8 14.7185V8.67188" stroke="#1A8917" stroke-width="1.2" stroke-linecap="round" stroke-linejoin="round"/>
<path d="M1.59375 6.42425C1.59375 5.50425 2.25374 4.38427 3.0604 3.9376L6.6204 1.95758C7.3804 1.53758 8.62706 1.53758 9.38706 1.95758L12.9471 3.9376C13.7537 4.38427 14.4137 5.50425 14.4137 6.42425V10.1909C14.4137 11.1109 13.7537 12.2309 12.9471 12.6776L9.38706 14.6576C8.62706 15.0776 7.3804 15.0776 6.6204 14.6576L3.0604 12.6776C2.25374 12.2309 1.59375 11.1109 1.59375 10.1909V9.64426" stroke="#1A8917" stroke-width="1.2" stroke-linecap="round" stroke-linejoin="round"/>
<path d="M11.3335 9.13826V6.69828L7.28682 4.35828L6.58683 3.95825L5.00684 3.04492" stroke="#1A8917" stroke-width="1.2" stroke-linecap="round" stroke-linejoin="round"/>
</svg>
