<svg width="32" height="32" viewBox="0 0 32 32" fill="none" xmlns="http://www.w3.org/2000/svg">
<path fill-rule="evenodd" clip-rule="evenodd" d="M7.6626 2.45533C7.91578 2.16597 8.28155 2 8.66603 2H23.3327C23.7172 2 24.083 2.16597 24.3361 2.45533L29.0028 7.78866C29.2898 8.11664 29.3873 8.54556 29.3041 8.94159C29.323 9.06944 29.3327 9.20025 29.3327 9.33333V26.6667C29.3327 28.1394 28.1388 29.3333 26.666 29.3333H5.3327C3.85994 29.3333 2.66603 28.1394 2.66603 26.6667V9.33333C2.66603 9.20025 2.67578 9.06944 2.69461 8.94159C2.61148 8.54557 2.70895 8.11665 2.99593 7.78866L7.6626 2.45533ZM7.52106 6.66667H24.4777L22.7277 4.66667H9.27106L7.52106 6.66667ZM26.666 9.33333H5.3327V26.6667H26.666V9.33333ZM10.6326 16.0055C10.6326 15.2692 11.2295 14.6722 11.9659 14.6722H19.9659C20.7023 14.6722 21.2992 15.2692 21.2992 16.0055C21.2992 16.7419 20.7023 17.3389 19.9659 17.3389H11.9659C11.2295 17.3389 10.6326 16.7419 10.6326 16.0055Z" fill="#076007"/>
</svg>
