<svg width="24" height="24" viewBox="0 0 24 24" fill="none" xmlns="http://www.w3.org/2000/svg">
<path d="M3.17004 7.4375L12 12.5475L20.77 7.46747" stroke="#EAEBF0" stroke-width="1.5" stroke-linecap="round" stroke-linejoin="round"/>
<path d="M12 21.6091V12.5391" stroke="#EAEBF0" stroke-width="1.5" stroke-linecap="round" stroke-linejoin="round"/>
<path d="M2.39014 9.16861C2.39014 7.78861 3.38012 6.10863 4.59012 5.43863L9.93011 2.46859C11.0701 1.83859 12.9401 1.83859 14.0801 2.46859L19.4201 5.43863C20.6301 6.10863 21.6201 7.78861 21.6201 9.16861V14.8186C21.6201 16.1986 20.6301 17.8786 19.4201 18.5486L14.0801 21.5186C12.9401 22.1486 11.0701 22.1486 9.93011 21.5186L4.59012 18.5486C3.38012 17.8786 2.39014 16.1986 2.39014 14.8186V13.9986" stroke="#EAEBF0" stroke-width="1.5" stroke-linecap="round" stroke-linejoin="round"/>
<path d="M17.0004 13.2377V9.5777L10.9304 6.06769L9.88037 5.46765L7.51038 4.09766" stroke="#EAEBF0" stroke-width="1.5" stroke-linecap="round" stroke-linejoin="round"/>
</svg>
