<svg width="32" height="32" viewBox="0 0 32 32" fill="none" xmlns="http://www.w3.org/2000/svg">
<path fill-rule="evenodd" clip-rule="evenodd" d="M1.66797 11.3359C1.66797 10.7837 2.11568 10.3359 2.66797 10.3359H18.0013C18.5536 10.3359 19.0013 10.7837 19.0013 11.3359C19.0013 11.8882 18.5536 12.3359 18.0013 12.3359H2.66797C2.11568 12.3359 1.66797 11.8882 1.66797 11.3359Z" fill="#076007"/>
<path fill-rule="evenodd" clip-rule="evenodd" d="M7 22C7 21.4477 7.44772 21 8 21H10.6667C11.219 21 11.6667 21.4477 11.6667 22C11.6667 22.5523 11.219 23 10.6667 23H8C7.44772 23 7 22.5523 7 22Z" fill="#076007"/>
<path fill-rule="evenodd" clip-rule="evenodd" d="M13 22C13 21.4477 13.4477 21 14 21H19.3333C19.8856 21 20.3333 21.4477 20.3333 22C20.3333 22.5523 19.8856 23 19.3333 23H14C13.4477 23 13 22.5523 13 22Z" fill="#076007"/>
<path fill-rule="evenodd" clip-rule="evenodd" d="M4.55606 6.55073C3.98931 7.1111 3.66797 8.1762 3.66797 10.5213V21.4813C3.66797 23.8264 3.98931 24.8915 4.55606 25.4519C5.12675 26.0161 6.21331 26.3346 8.58797 26.3346H23.4146C25.7893 26.3346 26.8759 26.0161 27.4465 25.4519C28.0133 24.8915 28.3346 23.8264 28.3346 21.4813V16.0413C28.3346 15.489 28.7824 15.0413 29.3346 15.0413C29.8869 15.0413 30.3346 15.489 30.3346 16.0413V21.4813C30.3346 23.8162 30.0626 25.6778 28.8527 26.8741C27.6467 28.0665 25.7733 28.3346 23.4146 28.3346H8.58797C6.2293 28.3346 4.35585 28.0665 3.14988 26.8741C1.93996 25.6778 1.66797 23.8162 1.66797 21.4813V10.5213C1.66797 8.1864 1.93996 6.32483 3.14988 5.12854C4.35585 3.93614 6.2293 3.66797 8.58797 3.66797H18.0013C18.5536 3.66797 19.0013 4.11568 19.0013 4.66797C19.0013 5.22025 18.5536 5.66797 18.0013 5.66797H8.58797C6.21331 5.66797 5.12675 5.98647 4.55606 6.55073Z" fill="#076007"/>
<path fill-rule="evenodd" clip-rule="evenodd" d="M21 8.33594C21 7.78365 21.4477 7.33594 22 7.33594H29.3333C29.8856 7.33594 30.3333 7.78365 30.3333 8.33594C30.3333 8.88822 29.8856 9.33594 29.3333 9.33594H22C21.4477 9.33594 21 8.88822 21 8.33594Z" fill="#076007"/>
<path fill-rule="evenodd" clip-rule="evenodd" d="M25.668 3.66797C26.2203 3.66797 26.668 4.11568 26.668 4.66797V12.0013C26.668 12.5536 26.2203 13.0013 25.668 13.0013C25.1157 13.0013 24.668 12.5536 24.668 12.0013V4.66797C24.668 4.11568 25.1157 3.66797 25.668 3.66797Z" fill="#076007"/>
</svg>
