<svg width="24" height="24" viewBox="0 0 24 24" fill="none" xmlns="http://www.w3.org/2000/svg">
<path d="M20.2102 7.81945L12.5102 12.2795C12.2002 12.4595 11.8102 12.4595 11.4902 12.2795L3.79021 7.81945C3.24021 7.49945 3.10021 6.74945 3.52021 6.27945C3.81021 5.94945 4.14021 5.67945 4.49021 5.48945L9.91021 2.48945C11.0702 1.83945 12.9502 1.83945 14.1102 2.48945L19.5302 5.48945C19.8802 5.67945 20.2102 5.95945 20.5002 6.27945C20.9002 6.74945 20.7602 7.49945 20.2102 7.81945Z" fill="white"/>
<path d="M11.4305 14.1409V20.9609C11.4305 21.7209 10.6605 22.2209 9.98047 21.8909C7.92047 20.8809 4.45047 18.9909 4.45047 18.9909C3.23047 18.3009 2.23047 16.5609 2.23047 15.1309V9.97086C2.23047 9.18086 3.06047 8.68086 3.74047 9.07086L10.9305 13.2409C11.2305 13.4309 11.4305 13.7709 11.4305 14.1409Z" fill="white"/>
<path d="M12.5703 14.1409V20.9609C12.5703 21.7209 13.3403 22.2209 14.0203 21.8909C16.0803 20.8809 19.5503 18.9909 19.5503 18.9909C20.7703 18.3009 21.7703 16.5609 21.7703 15.1309V9.97086C21.7703 9.18086 20.9403 8.68086 20.2603 9.07086L13.0703 13.2409C12.7703 13.4309 12.5703 13.7709 12.5703 14.1409Z" fill="white"/>
</svg>
