<svg width="17" height="17" viewBox="0 0 17 17" fill="none" xmlns="http://www.w3.org/2000/svg">
<path d="M5.50009 9.56901C5.1319 9.56901 4.83343 9.86749 4.83343 10.2357C4.83343 10.6039 5.1319 10.9023 5.50009 10.9023H11.5001C11.8683 10.9023 12.1668 10.6039 12.1668 10.2357C12.1668 9.86749 11.8683 9.56901 11.5001 9.56901H5.50009Z" fill="#444444"/>
<path d="M5.50009 12.569C5.50009 12.2008 5.79857 11.9023 6.16676 11.9023H10.8334C11.2016 11.9023 11.5001 12.2008 11.5001 12.569C11.5001 12.9372 11.2016 13.2357 10.8334 13.2357H6.16676C5.79857 13.2357 5.50009 12.9372 5.50009 12.569Z" fill="#444444"/>
<path fill-rule="evenodd" clip-rule="evenodd" d="M8.50009 1.90234C7.38701 1.90234 6.54574 2.76082 6.02233 3.77276C5.54043 4.70444 5.23806 5.91601 5.17786 7.23568H2.74259L2.62837 6.27503C2.60479 6.07673 2.75967 5.90234 2.95937 5.90234H3.83343C4.20162 5.90234 4.5001 5.60387 4.5001 5.23568C4.5001 4.86749 4.20162 4.56901 3.83343 4.56901H2.95937C1.96089 4.56901 1.18647 5.44096 1.30436 6.43246L2.21124 14.0598C2.29099 14.7305 2.85976 15.2357 3.53525 15.2357H13.6579C14.3445 15.2357 14.9188 14.7143 14.985 14.0308L15.7242 6.39629C15.819 5.41694 15.0492 4.56901 14.0653 4.56901H13.1668C12.7986 4.56901 12.5001 4.86749 12.5001 5.23568C12.5001 5.60387 12.7986 5.90234 13.1668 5.90234H14.0653C14.262 5.90234 14.416 6.0719 14.3971 6.2678L14.3034 7.23568H11.8223C11.7621 5.91601 11.4598 4.70444 10.9779 3.77276C10.4544 2.76082 9.61318 1.90234 8.50009 1.90234ZM10.4874 7.23568C10.4282 6.0991 10.1654 5.10424 9.79357 4.38532C9.35184 3.53131 8.85978 3.23568 8.50009 3.23568C8.14041 3.23568 7.64835 3.53131 7.20662 4.38532C6.83477 5.10424 6.57203 6.0991 6.51276 7.23568H10.4874ZM2.90112 8.56901L3.53525 13.9023L13.6579 13.9023L14.1743 8.56901H2.90112Z" fill="#444444"/>
</svg>
