<svg width="16" height="16" viewBox="0 0 16 16" fill="none" xmlns="http://www.w3.org/2000/svg">
<path d="M5.33268 6.20768C5.33268 4.73493 6.52659 3.54102 7.99935 3.54102C9.47211 3.54102 10.666 4.73493 10.666 6.20768C10.666 7.45024 9.81616 8.49431 8.66602 8.79034V9.54101C8.66602 9.90921 8.36754 10.2077 7.99935 10.2077C7.63116 10.2077 7.33268 9.90921 7.33268 9.54101V8.20768C7.33268 7.83949 7.63116 7.54102 7.99935 7.54102C8.73572 7.54102 9.33268 6.94406 9.33268 6.20768C9.33268 5.47131 8.73572 4.87435 7.99935 4.87435C7.26297 4.87435 6.66602 5.47131 6.66602 6.20768C6.66602 6.57587 6.36754 6.87435 5.99935 6.87435C5.63116 6.87435 5.33268 6.57587 5.33268 6.20768Z" fill="#919191"/>
<path d="M8.83268 11.7077C8.83268 12.1679 8.45958 12.541 7.99935 12.541C7.53912 12.541 7.16602 12.1679 7.16602 11.7077C7.16602 11.2474 7.53912 10.8743 7.99935 10.8743C8.45958 10.8743 8.83268 11.2474 8.83268 11.7077Z" fill="#919191"/>
<path fill-rule="evenodd" clip-rule="evenodd" d="M2.8139 2.81389C4.14026 1.48756 5.9745 0.666016 7.99935 0.666016C10.0242 0.666016 11.8584 1.48756 13.1848 2.8139C14.5111 4.14025 15.3327 5.9745 15.3327 7.99935C15.3327 10.0242 14.5111 11.8584 13.1848 13.1848C11.8584 14.5111 10.0242 15.3327 7.99935 15.3327C5.9745 15.3327 4.14026 14.5111 2.8139 13.1848C1.48756 11.8584 0.666016 10.0242 0.666016 7.99935C0.666016 5.9745 1.48757 4.14025 2.8139 2.81389ZM7.99935 1.99935C6.34233 1.99935 4.84324 2.67019 3.7567 3.75671C2.67018 4.84325 1.99935 6.34233 1.99935 7.99935C1.99935 9.65637 2.67019 11.1555 3.75671 12.242C4.84324 13.3285 6.34233 13.9993 7.99935 13.9993C9.65637 13.9993 11.1555 13.3285 12.242 12.242C13.3285 11.1555 13.9993 9.65637 13.9993 7.99935C13.9993 6.34233 13.3285 4.84324 12.242 3.75671C11.1555 2.67019 9.65637 1.99935 7.99935 1.99935Z" fill="#919191"/>
</svg>
