<svg width="17" height="17" viewBox="0 0 17 17" fill="none" xmlns="http://www.w3.org/2000/svg">
<path d="M5.83341 6.27995C5.83341 4.80719 7.02732 3.61328 8.50008 3.61328C9.97284 3.61328 11.1667 4.80719 11.1667 6.27995C11.1667 7.5225 10.3169 8.56657 9.16675 8.8626V9.61328C9.16675 9.98147 8.86827 10.2799 8.50008 10.2799C8.13189 10.2799 7.83341 9.98147 7.83341 9.61328V8.27995C7.83341 7.91176 8.13189 7.61328 8.50008 7.61328C9.23646 7.61328 9.83341 7.01632 9.83341 6.27995C9.83341 5.54357 9.23646 4.94661 8.50008 4.94661C7.7637 4.94661 7.16675 5.54357 7.16675 6.27995C7.16675 6.64814 6.86827 6.94661 6.50008 6.94661C6.13189 6.94661 5.83341 6.64814 5.83341 6.27995Z" fill="black" fill-opacity="0.85"/>
<path d="M9.33341 11.7799C9.33341 12.2402 8.96031 12.6133 8.50008 12.6133C8.03985 12.6133 7.66675 12.2402 7.66675 11.7799C7.66675 11.3197 8.03985 10.9466 8.50008 10.9466C8.96031 10.9466 9.33341 11.3197 9.33341 11.7799Z" fill="black" fill-opacity="0.85"/>
<path fill-rule="evenodd" clip-rule="evenodd" d="M3.31463 2.88616C4.64099 1.55982 6.47524 0.738281 8.50008 0.738281C10.5249 0.738281 12.3592 1.55982 13.6855 2.88616C15.0119 4.21252 15.8334 6.04677 15.8334 8.07161C15.8334 10.0965 15.0119 11.9307 13.6855 13.2571C12.3592 14.5834 10.5249 15.4049 8.50008 15.4049C6.47523 15.4049 4.64099 14.5834 3.31463 13.2571C1.9883 11.9307 1.16675 10.0965 1.16675 8.07161C1.16675 6.04677 1.9883 4.21252 3.31463 2.88616ZM8.50008 2.07161C6.84306 2.07161 5.34397 2.74246 4.25744 3.82898C3.17092 4.91551 2.50008 6.41459 2.50008 8.07161C2.50008 9.72864 3.17092 11.2277 4.25744 12.3142C5.34397 13.4008 6.84306 14.0716 8.50008 14.0716C10.1571 14.0716 11.6562 13.4008 12.7427 12.3142C13.8292 11.2277 14.5001 9.72863 14.5001 8.07161C14.5001 6.4146 13.8292 4.91551 12.7427 3.82897C11.6562 2.74246 10.1571 2.07161 8.50008 2.07161Z" fill="black" fill-opacity="0.85"/>
</svg>
