<svg width="43" height="43" viewBox="0 0 43 43" fill="none" xmlns="http://www.w3.org/2000/svg">
<path fill-rule="evenodd" clip-rule="evenodd" d="M5.96738 5.9791C8.29489 3.65159 11.7778 2.76172 16.2672 2.76172H26.7321C31.2215 2.76172 34.7043 3.65159 37.0318 5.9791C39.3594 8.30661 40.2492 11.7895 40.2492 16.2789V26.7438C40.2492 31.2332 39.3594 34.716 37.0318 37.0436C34.7043 39.3711 31.2215 40.2609 26.7321 40.2609H16.2672C11.7778 40.2609 8.29489 39.3711 5.96738 37.0436C3.63987 34.716 2.75 31.2332 2.75 26.7438V16.2789C2.75 11.7895 3.63987 8.30661 5.96738 5.9791ZM7.81733 7.82905C6.22051 9.42587 5.36622 12.0475 5.36622 16.2789V26.7438C5.36622 30.9751 6.22051 33.5968 7.81733 35.1936C9.41415 36.7904 12.0358 37.6447 16.2672 37.6447H26.7321C30.9634 37.6447 33.5851 36.7904 35.1819 35.1936C36.7787 33.5968 37.633 30.9751 37.633 26.7438V16.2789C37.633 12.0475 36.7787 9.42587 35.1819 7.82905C33.5851 6.23223 30.9634 5.37794 26.7321 5.37794H16.2672C12.0358 5.37794 9.41415 6.23223 7.81733 7.82905Z" fill="#1A8917"/>
<path fill-rule="evenodd" clip-rule="evenodd" d="M13.6523 16.2788C13.6523 15.5564 14.238 14.9707 14.9605 14.9707H28.0416C28.764 14.9707 29.3497 15.5564 29.3497 16.2788C29.3497 17.0013 28.764 17.5869 28.0416 17.5869H14.9605C14.238 17.5869 13.6523 17.0013 13.6523 16.2788Z" fill="#1A8917"/>
<path fill-rule="evenodd" clip-rule="evenodd" d="M13.6523 26.7437C13.6523 26.0212 14.238 25.4355 14.9605 25.4355H28.0416C28.764 25.4355 29.3497 26.0212 29.3497 26.7437C29.3497 27.4661 28.764 28.0518 28.0416 28.0518H14.9605C14.238 28.0518 13.6523 27.4661 13.6523 26.7437Z" fill="#1A8917"/>
</svg>
