<svg width="25" height="25" viewBox="0 0 25 25" fill="none" xmlns="http://www.w3.org/2000/svg">
<path fill-rule="evenodd" clip-rule="evenodd" d="M24.517 21.2031L24.5255 3.20313C24.5263 1.54627 23.1838 0.202496 21.5269 0.201717L3.52691 0.193253C1.87006 0.192474 0.526282 1.53499 0.525503 3.19184L0.517039 21.1918C0.516259 22.8487 1.85877 24.1925 3.51563 24.1933L21.5156 24.2017C23.1725 24.2025 24.5163 22.86 24.517 21.2031ZM12.2546 18.1183C12.6059 18.47 13.1757 18.4702 13.5273 18.1189L17.7577 13.8926C18.1093 13.5412 18.1096 12.9714 17.7583 12.6198C17.407 12.2681 16.8371 12.2679 16.4855 12.6192L13.7923 15.3099L13.7962 6.91177C13.7965 6.41471 13.3937 6.01158 12.8966 6.01134C12.3996 6.01111 11.9965 6.41387 11.9962 6.91092L11.9923 15.309L9.30158 12.6158C8.95028 12.2642 8.38043 12.2639 8.02879 12.6152C7.67716 12.9665 7.67689 13.5363 8.02819 13.888L12.2546 18.1183Z" fill="white"/>
</svg>
