<svg width="43" height="43" viewBox="0 0 43 43" fill="none" xmlns="http://www.w3.org/2000/svg">
<path fill-rule="evenodd" clip-rule="evenodd" d="M28.9429 6.51009C29.4537 7.02094 29.4537 7.84919 28.9429 8.36004L8.10028 29.2026C7.58943 29.7135 6.76117 29.7135 6.25032 29.2026C5.73948 28.6918 5.73948 27.8635 6.25032 27.3527L27.0929 6.51009C27.6038 5.99924 28.432 5.99924 28.9429 6.51009Z" fill="#919191"/>
<path fill-rule="evenodd" clip-rule="evenodd" d="M22.7011 29.4456C23.2119 29.9565 23.2119 30.7847 22.7011 31.2956L20.6081 33.3886C20.0972 33.8994 19.269 33.8994 18.7581 33.3886C18.2473 32.8777 18.2473 32.0495 18.7581 31.5386L20.8511 29.4456C21.362 28.9348 22.1902 28.9348 22.7011 29.4456Z" fill="#919191"/>
<path fill-rule="evenodd" clip-rule="evenodd" d="M29.4719 22.6781C29.9828 23.1889 29.9828 24.0172 29.4719 24.528L25.3034 28.6965C24.7925 29.2074 23.9643 29.2074 23.4534 28.6965C22.9426 28.1857 22.9426 27.3574 23.4534 26.8466L27.622 22.6781C28.1328 22.1672 28.9611 22.1672 29.4719 22.6781Z" fill="#919191"/>
<path fill-rule="evenodd" clip-rule="evenodd" d="M22.808 5.38189C22.0095 5.38692 20.9632 5.92892 19.1071 7.78505L7.52594 19.3662C5.65961 21.2325 5.12001 22.2775 5.11625 23.0716C5.11251 23.8594 5.63521 24.887 7.47362 26.7254L16.0374 35.2891C17.8728 37.1246 18.9051 37.645 19.6956 37.64C20.4941 37.635 21.5404 37.093 23.3966 35.2368L34.9777 23.6557C36.8338 21.7995 37.3758 20.7532 37.3809 19.9548C37.3859 19.1642 36.8654 18.1319 35.03 16.2965L26.4663 7.73273C24.6308 5.89732 23.5986 5.3769 22.808 5.38189ZM22.7915 2.76571C24.7654 2.75326 26.4889 4.05548 28.3162 5.88278L36.88 14.4466C38.7073 16.2739 40.0095 17.9974 39.997 19.9713C39.9846 21.9373 38.6691 23.6642 36.8277 25.5056L25.2465 37.0868C23.405 38.9282 21.6782 40.2438 19.7121 40.2562C17.7383 40.2686 16.0147 38.9664 14.1874 37.1391L5.62367 28.5753C3.79936 26.751 2.4907 25.0316 2.50005 23.0592C2.50937 21.0932 3.82728 19.365 5.67599 17.5163L17.2571 5.9351C19.0986 4.09364 20.8255 2.77812 22.7915 2.76571Z" fill="#919191"/>
<path fill-rule="evenodd" clip-rule="evenodd" d="M2.5 38.9507C2.5 38.2282 3.08566 37.6426 3.80811 37.6426H38.6911C39.4136 37.6426 39.9992 38.2282 39.9992 38.9507C39.9992 39.6731 39.4136 40.2588 38.6911 40.2588H3.80811C3.08566 40.2588 2.5 39.6731 2.5 38.9507Z" fill="#919191"/>
</svg>
