<svg width="24" height="24" viewBox="0 0 24 24" fill="none" xmlns="http://www.w3.org/2000/svg">
<path fill-rule="evenodd" clip-rule="evenodd" d="M5.66421 1.59961H7.33501C7.86488 1.5996 8.31606 1.59958 8.6865 1.62985C9.07566 1.66164 9.45425 1.73128 9.81618 1.91569C10.3619 2.19372 10.8055 2.63737 11.0835 3.18304C11.2679 3.54497 11.3376 3.92356 11.3694 4.31273C11.3996 4.68316 11.3996 5.13434 11.3996 5.66421V7.33502C11.3996 7.86489 11.3996 8.31606 11.3694 8.6865C11.3376 9.07566 11.2679 9.45425 11.0835 9.81618C10.8055 10.3619 10.3619 10.8055 9.81618 11.0835C9.45425 11.2679 9.07566 11.3376 8.6865 11.3694C8.31606 11.3996 7.86488 11.3996 7.33502 11.3996H5.6642C5.13434 11.3996 4.68316 11.3996 4.31273 11.3694C3.92356 11.3376 3.54497 11.2679 3.18304 11.0835C2.63737 10.8055 2.19372 10.3619 1.91569 9.81618C1.73128 9.45425 1.66164 9.07566 1.62985 8.6865C1.59958 8.31606 1.5996 7.86488 1.59961 7.33501V5.66421C1.5996 5.13434 1.59958 4.68316 1.62985 4.31273C1.66164 3.92356 1.73128 3.54497 1.91569 3.18304C2.19372 2.63737 2.63737 2.19372 3.18304 1.91569C3.54497 1.73128 3.92356 1.66164 4.31273 1.62985C4.68316 1.59958 5.13434 1.5996 5.66421 1.59961ZM4.4593 3.42387C4.18146 3.44657 4.06611 3.48593 4.00022 3.5195C3.79324 3.62496 3.62496 3.79324 3.5195 4.00022C3.48593 4.06611 3.44657 4.18146 3.42387 4.4593C3.40031 4.74766 3.39961 5.12471 3.39961 5.69961V7.29961C3.39961 7.87451 3.40031 8.25156 3.42387 8.53992C3.44657 8.81777 3.48593 8.93311 3.5195 8.999C3.62496 9.20598 3.79324 9.37426 4.00022 9.47972C4.06611 9.51329 4.18146 9.55265 4.4593 9.57535C4.74766 9.59891 5.12471 9.59961 5.69961 9.59961H7.29961C7.87451 9.59961 8.25156 9.59891 8.53992 9.57535C8.81777 9.55265 8.93311 9.51329 8.999 9.47972C9.20598 9.37426 9.37426 9.20598 9.47972 8.999C9.51329 8.93311 9.55265 8.81777 9.57535 8.53992C9.59891 8.25156 9.59961 7.87451 9.59961 7.29961V5.69961C9.59961 5.12471 9.59891 4.74766 9.57535 4.4593C9.55265 4.18146 9.51329 4.06611 9.47972 4.00022C9.37426 3.79324 9.20598 3.62496 8.999 3.5195C8.93311 3.48593 8.81777 3.44657 8.53992 3.42387C8.25156 3.40031 7.87451 3.39961 7.29961 3.39961H5.69961C5.12471 3.39961 4.74766 3.40031 4.4593 3.42387Z" fill="white"/>
<path fill-rule="evenodd" clip-rule="evenodd" d="M16.6642 1.59961H18.335C18.8649 1.5996 19.3161 1.59958 19.6865 1.62985C20.0757 1.66164 20.4542 1.73128 20.8162 1.91569C21.3619 2.19372 21.8055 2.63737 22.0835 3.18304C22.2679 3.54497 22.3376 3.92356 22.3694 4.31273C22.3996 4.68316 22.3996 5.13434 22.3996 5.66421V7.33502C22.3996 7.86489 22.3996 8.31606 22.3694 8.6865C22.3376 9.07566 22.2679 9.45425 22.0835 9.81618C21.8055 10.3619 21.3619 10.8055 20.8162 11.0835C20.4542 11.2679 20.0757 11.3376 19.6865 11.3694C19.3161 11.3996 18.8649 11.3996 18.335 11.3996H16.6642C16.1343 11.3996 15.6832 11.3996 15.3127 11.3694C14.9236 11.3376 14.545 11.2679 14.183 11.0835C13.6374 10.8055 13.1937 10.3619 12.9157 9.81618C12.7313 9.45425 12.6616 9.07566 12.6298 8.6865C12.5996 8.31606 12.5996 7.86488 12.5996 7.33501V5.66421C12.5996 5.13434 12.5996 4.68316 12.6298 4.31273C12.6616 3.92356 12.7313 3.54497 12.9157 3.18304C13.1937 2.63737 13.6374 2.19372 14.183 1.91569C14.545 1.73128 14.9236 1.66164 15.3127 1.62985C15.6832 1.59958 16.1343 1.5996 16.6642 1.59961ZM15.4593 3.42387C15.1815 3.44657 15.0661 3.48593 15.0002 3.5195C14.7932 3.62496 14.625 3.79324 14.5195 4.00022C14.4859 4.06611 14.4466 4.18146 14.4239 4.4593C14.4003 4.74766 14.3996 5.12471 14.3996 5.69961V7.29961C14.3996 7.87451 14.4003 8.25156 14.4239 8.53992C14.4466 8.81777 14.4859 8.93311 14.5195 8.999C14.625 9.20598 14.7932 9.37426 15.0002 9.47972C15.0661 9.51329 15.1815 9.55265 15.4593 9.57535C15.7477 9.59891 16.1247 9.59961 16.6996 9.59961H18.2996C18.8745 9.59961 19.2516 9.59891 19.5399 9.57535C19.8178 9.55265 19.9331 9.51329 19.999 9.47972C20.206 9.37426 20.3743 9.20598 20.4797 8.999C20.5133 8.93311 20.5527 8.81777 20.5754 8.53992C20.5989 8.25156 20.5996 7.87451 20.5996 7.29961V5.69961C20.5996 5.12471 20.5989 4.74766 20.5754 4.4593C20.5527 4.18146 20.5133 4.06611 20.4797 4.00022C20.3743 3.79324 20.206 3.62496 19.999 3.5195C19.9331 3.48593 19.8178 3.44657 19.5399 3.42387C19.2516 3.40031 18.8745 3.39961 18.2996 3.39961H16.6996C16.1247 3.39961 15.7477 3.40031 15.4593 3.42387Z" fill="white"/>
<path fill-rule="evenodd" clip-rule="evenodd" d="M5.66421 12.5996H7.33501C7.86488 12.5996 8.31606 12.5996 8.6865 12.6298C9.07566 12.6616 9.45425 12.7313 9.81618 12.9157C10.3619 13.1937 10.8055 13.6374 11.0835 14.183C11.2679 14.545 11.3376 14.9236 11.3694 15.3127C11.3996 15.6832 11.3996 16.1343 11.3996 16.6642V18.335C11.3996 18.8649 11.3996 19.3161 11.3694 19.6865C11.3376 20.0757 11.2679 20.4542 11.0835 20.8162C10.8055 21.3619 10.3619 21.8055 9.81618 22.0835C9.45425 22.2679 9.07566 22.3376 8.6865 22.3694C8.31606 22.3996 7.86488 22.3996 7.33502 22.3996H5.6642C5.13434 22.3996 4.68316 22.3996 4.31273 22.3694C3.92356 22.3376 3.54497 22.2679 3.18304 22.0835C2.63737 21.8055 2.19372 21.3619 1.91569 20.8162C1.73128 20.4542 1.66164 20.0757 1.62985 19.6865C1.59958 19.3161 1.5996 18.8649 1.59961 18.335V16.6642C1.5996 16.1343 1.59958 15.6832 1.62985 15.3127C1.66164 14.9236 1.73128 14.545 1.91569 14.183C2.19372 13.6374 2.63737 13.1937 3.18304 12.9157C3.54497 12.7313 3.92356 12.6616 4.31273 12.6298C4.68316 12.5996 5.13434 12.5996 5.66421 12.5996ZM4.4593 14.4239C4.18146 14.4466 4.06611 14.4859 4.00022 14.5195C3.79324 14.625 3.62496 14.7932 3.5195 15.0002C3.48593 15.0661 3.44657 15.1815 3.42387 15.4593C3.40031 15.7477 3.39961 16.1247 3.39961 16.6996V18.2996C3.39961 18.8745 3.40031 19.2516 3.42387 19.5399C3.44657 19.8178 3.48593 19.9331 3.5195 19.999C3.62496 20.206 3.79324 20.3743 4.00022 20.4797C4.06611 20.5133 4.18146 20.5527 4.4593 20.5754C4.74766 20.5989 5.12471 20.5996 5.69961 20.5996H7.29961C7.87451 20.5996 8.25156 20.5989 8.53992 20.5754C8.81777 20.5527 8.93311 20.5133 8.999 20.4797C9.20598 20.3743 9.37426 20.206 9.47972 19.999C9.51329 19.9331 9.55265 19.8178 9.57535 19.5399C9.59891 19.2516 9.59961 18.8745 9.59961 18.2996V16.6996C9.59961 16.1247 9.59891 15.7477 9.57535 15.4593C9.55265 15.1815 9.51329 15.0661 9.47972 15.0002C9.37426 14.7932 9.20598 14.625 8.999 14.5195C8.93311 14.4859 8.81777 14.4466 8.53992 14.4239C8.25156 14.4003 7.87451 14.3996 7.29961 14.3996H5.69961C5.12471 14.3996 4.74766 14.4003 4.4593 14.4239Z" fill="white"/>
<path fill-rule="evenodd" clip-rule="evenodd" d="M16.6642 12.5996H18.335C18.8649 12.5996 19.3161 12.5996 19.6865 12.6298C20.0757 12.6616 20.4542 12.7313 20.8162 12.9157C21.3619 13.1937 21.8055 13.6374 22.0835 14.183C22.2679 14.545 22.3376 14.9236 22.3694 15.3127C22.3996 15.6832 22.3996 16.1343 22.3996 16.6642V18.335C22.3996 18.8649 22.3996 19.3161 22.3694 19.6865C22.3376 20.0757 22.2679 20.4542 22.0835 20.8162C21.8055 21.3619 21.3619 21.8055 20.8162 22.0835C20.4542 22.2679 20.0757 22.3376 19.6865 22.3694C19.3161 22.3996 18.8649 22.3996 18.335 22.3996H16.6642C16.1343 22.3996 15.6832 22.3996 15.3127 22.3694C14.9236 22.3376 14.545 22.2679 14.183 22.0835C13.6374 21.8055 13.1937 21.3619 12.9157 20.8162C12.7313 20.4542 12.6616 20.0757 12.6298 19.6865C12.5996 19.3161 12.5996 18.8649 12.5996 18.335V16.6642C12.5996 16.1343 12.5996 15.6832 12.6298 15.3127C12.6616 14.9236 12.7313 14.545 12.9157 14.183C13.1937 13.6374 13.6374 13.1937 14.183 12.9157C14.545 12.7313 14.9236 12.6616 15.3127 12.6298C15.6832 12.5996 16.1343 12.5996 16.6642 12.5996ZM15.4593 14.4239C15.1815 14.4466 15.0661 14.4859 15.0002 14.5195C14.7932 14.625 14.625 14.7932 14.5195 15.0002C14.4859 15.0661 14.4466 15.1815 14.4239 15.4593C14.4003 15.7477 14.3996 16.1247 14.3996 16.6996V18.2996C14.3996 18.8745 14.4003 19.2516 14.4239 19.5399C14.4466 19.8178 14.4859 19.9331 14.5195 19.999C14.625 20.206 14.7932 20.3743 15.0002 20.4797C15.0661 20.5133 15.1815 20.5527 15.4593 20.5754C15.7477 20.5989 16.1247 20.5996 16.6996 20.5996H18.2996C18.8745 20.5996 19.2516 20.5989 19.5399 20.5754C19.8178 20.5527 19.9331 20.5133 19.999 20.4797C20.206 20.3743 20.3743 20.206 20.4797 19.999C20.5133 19.9331 20.5527 19.8178 20.5754 19.5399C20.5989 19.2516 20.5996 18.8745 20.5996 18.2996V16.6996C20.5996 16.1247 20.5989 15.7477 20.5754 15.4593C20.5527 15.1815 20.5133 15.0661 20.4797 15.0002C20.3743 14.7932 20.206 14.625 19.999 14.5195C19.9331 14.4859 19.8178 14.4466 19.5399 14.4239C19.2516 14.4003 18.8745 14.3996 18.2996 14.3996H16.6996C16.1247 14.3996 15.7477 14.4003 15.4593 14.4239Z" fill="white"/>
</svg>
