<svg width="28" height="28" viewBox="0 0 28 28" fill="none" xmlns="http://www.w3.org/2000/svg">
<path fill-rule="evenodd" clip-rule="evenodd" d="M12.7854 10.7793C12.3805 10.7793 11.9687 11.1461 11.9687 11.6893C11.9687 12.1006 12.057 12.249 12.1012 12.3053C12.1537 12.3722 12.2588 12.4555 12.5397 12.5558L16.0538 13.7816C16.4649 13.9279 16.9347 14.1576 17.2856 14.607C17.6443 15.0663 17.7904 15.6392 17.7904 16.2976C17.7904 17.7299 16.6818 18.9576 15.2237 18.9576H13.0304C11.4376 18.9576 10.207 17.6188 10.207 16.041C10.207 15.5577 10.5988 15.166 11.082 15.166C11.5653 15.166 11.957 15.5577 11.957 16.041C11.957 16.7264 12.4765 17.2076 13.0304 17.2076H15.2237C15.6322 17.2076 16.0404 16.8487 16.0404 16.2976C16.0404 15.8943 15.9531 15.7439 15.9064 15.6841C15.852 15.6145 15.7448 15.5295 15.4695 15.4312L11.9553 14.2053C11.5497 14.0609 11.0777 13.8354 10.7249 13.3862C10.3638 12.9263 10.2187 12.3513 10.2187 11.6893C10.2187 10.2725 11.3236 9.0293 12.7854 9.0293H14.9787C16.5715 9.0293 17.802 10.3681 17.802 11.946C17.802 12.4292 17.4103 12.821 16.927 12.821C16.4438 12.821 16.052 12.4292 16.052 11.946C16.052 11.2605 15.5325 10.7793 14.9787 10.7793H12.7854Z" fill="#076007"/>
<path fill-rule="evenodd" clip-rule="evenodd" d="M14 7.875C14.4832 7.875 14.875 8.26675 14.875 8.75V19.25C14.875 19.7332 14.4832 20.125 14 20.125C13.5168 20.125 13.125 19.7332 13.125 19.25V8.75C13.125 8.26675 13.5168 7.875 14 7.875Z" fill="#076007"/>
<path fill-rule="evenodd" clip-rule="evenodd" d="M13.9987 3.20898C8.04195 3.20898 3.20703 8.0439 3.20703 14.0007C3.20703 19.9574 8.04195 24.7923 13.9987 24.7923C19.9555 24.7923 24.7904 19.9574 24.7904 14.0007C24.7904 13.5174 25.1821 13.1257 25.6654 13.1257C26.1486 13.1257 26.5404 13.5174 26.5404 14.0007C26.5404 20.9239 20.9219 26.5423 13.9987 26.5423C7.07545 26.5423 1.45703 20.9239 1.45703 14.0007C1.45703 7.0774 7.07545 1.45898 13.9987 1.45898C14.4819 1.45898 14.8737 1.85074 14.8737 2.33398C14.8737 2.81723 14.4819 3.20898 13.9987 3.20898Z" fill="#076007"/>
<path fill-rule="evenodd" clip-rule="evenodd" d="M19.832 2.625C20.3153 2.625 20.707 3.01675 20.707 3.5V7.29167H24.4987C24.9819 7.29167 25.3737 7.68342 25.3737 8.16667C25.3737 8.64992 24.9819 9.04167 24.4987 9.04167H19.832C19.3488 9.04167 18.957 8.64992 18.957 8.16667V3.5C18.957 3.01675 19.3488 2.625 19.832 2.625Z" fill="#076007"/>
<path fill-rule="evenodd" clip-rule="evenodd" d="M26.2841 1.71527C26.6258 2.05697 26.6258 2.61099 26.2841 2.9527L20.4508 8.78604C20.109 9.12774 19.555 9.12774 19.2133 8.78604C18.8716 8.44433 18.8716 7.89031 19.2133 7.5486L25.0466 1.71527C25.3884 1.37356 25.9424 1.37356 26.2841 1.71527Z" fill="#076007"/>
</svg>
