<svg width="42" height="43" viewBox="0 0 42 43" fill="none" xmlns="http://www.w3.org/2000/svg">
<path fill-rule="evenodd" clip-rule="evenodd" d="M14.9141 27.5093C14.9141 26.7868 15.4997 26.2012 16.2222 26.2012H24.9429C25.6654 26.2012 26.251 26.7868 26.251 27.5093C26.251 28.2317 25.6654 28.8174 24.9429 28.8174H16.2222C15.4997 28.8174 14.9141 28.2317 14.9141 27.5093Z" fill="#919191"/>
<path fill-rule="evenodd" clip-rule="evenodd" d="M20.5855 21.9434C21.3079 21.9434 21.8936 22.529 21.8936 23.2515V31.9722C21.8936 32.6947 21.3079 33.2803 20.5855 33.2803C19.863 33.2803 19.2773 32.6947 19.2773 31.9722V23.2515C19.2773 22.529 19.863 21.9434 20.5855 21.9434Z" fill="#919191"/>
<path fill-rule="evenodd" clip-rule="evenodd" d="M16.5659 5.68875C15.4481 6.19288 14.3994 7.42477 13.2891 9.99279C13.2726 10.0309 13.2544 10.0682 13.2343 10.1046C13.2327 10.109 13.2308 10.1145 13.2285 10.1212L13.2073 10.1838C13.1948 10.2214 13.1806 10.2583 13.1648 10.2945L13.051 10.5544L12.9813 10.7289L10.946 15.5899C11.3155 15.5477 11.6909 15.5259 12.071 15.5259H16.1811L20.3913 5.75526C18.6356 5.24166 17.4583 5.28624 16.5659 5.68875ZM15.4902 3.30388C17.5558 2.37224 19.92 2.71929 22.6196 3.75201C22.952 3.87917 23.2182 4.13628 23.3569 4.46405C23.4956 4.79182 23.4947 5.16194 23.3545 5.48906L23.3022 5.61115L18.2431 17.3517C18.0364 17.8314 17.5642 18.1421 17.0418 18.1421H12.071C11.0656 18.1421 10.1051 18.3489 9.23257 18.7187C8.74281 18.9262 8.17616 18.8165 7.79923 18.4412C7.4223 18.0659 7.31017 17.4997 7.51558 17.009L10.5638 9.72813L10.6297 9.56343C10.6349 9.55051 10.6402 9.53768 10.6458 9.52493L10.7434 9.30178C10.7732 9.21292 10.8285 9.05736 10.9127 8.89705C12.0819 6.20942 13.4611 4.21907 15.4902 3.30388Z" fill="#919191"/>
<path fill-rule="evenodd" clip-rule="evenodd" d="M20.9505 4.4591C21.2185 3.83377 21.9211 3.51826 22.5665 3.7334C22.782 3.80524 23.0798 3.93381 23.2637 4.01322C23.3277 4.04084 23.3779 4.06252 23.4061 4.07378L23.4277 4.08244L27.2791 5.70336C29.4799 6.61618 31.2222 7.64058 32.3371 9.00929C32.5343 9.24636 32.7209 9.49735 32.8901 9.8029C33.0673 10.0841 33.2349 10.4074 33.3469 10.7792C33.4224 10.9609 33.4822 11.1413 33.5268 11.3111C34.1215 13.2083 33.7038 15.3487 32.7671 17.6725C32.5124 18.3042 31.8156 18.6348 31.1652 18.4325C30.5288 18.2345 29.826 18.1427 29.0946 18.1427H17.0425C16.6023 18.1427 16.1917 17.9213 15.9497 17.5536C15.7078 17.1859 15.667 16.7212 15.8412 16.3169L20.8992 4.57882L20.9505 4.4591ZM22.8444 6.67564L19.0306 15.5265H29.0946C29.6323 15.5265 30.1794 15.5647 30.7234 15.6514C31.2457 14.0561 31.2964 12.9211 31.0236 12.0722C31.0148 12.0448 31.0068 12.0171 30.9999 11.9892C30.9828 11.9208 30.9547 11.8355 30.9166 11.7497C30.8886 11.6869 30.8657 11.6219 30.848 11.5555C30.8242 11.4663 30.7736 11.3483 30.6628 11.1758C30.6445 11.1474 30.6274 11.1184 30.6114 11.0886C30.5443 10.9641 30.4622 10.8461 30.3222 10.678L30.3118 10.6655C29.6131 9.80557 28.3587 8.98321 26.2738 8.11875L26.2675 8.11611L22.8444 6.67564Z" fill="#919191"/>
<path fill-rule="evenodd" clip-rule="evenodd" d="M9.25084 18.7181C6.68063 19.8293 4.88576 22.3846 4.88576 25.345V28.746C4.88576 29.0939 4.91487 29.4541 4.96198 29.8152C4.96557 29.8428 4.96829 29.8705 4.97012 29.8982C5.13929 32.4598 5.89463 34.2493 7.08614 35.4408C8.27765 36.6323 10.0671 37.3877 12.6288 37.5568C12.6565 37.5587 12.6842 37.5614 12.7118 37.565C13.0729 37.6121 13.4331 37.6412 13.7809 37.6412H27.3853C30.4203 37.6412 32.5232 36.9192 33.8989 35.6812C35.2627 34.454 36.1111 32.5397 36.2648 29.7237C36.2825 29.3708 36.2979 29.0557 36.2979 28.746V25.345C36.2979 22.0875 34.1316 19.3384 31.1942 18.435C30.5517 18.2458 29.8418 18.1416 29.112 18.1416H12.0891C11.0903 18.1416 10.147 18.3458 9.25084 18.7181ZM8.23721 16.3062C9.43184 15.8085 10.7186 15.5254 12.0891 15.5254H29.112C30.089 15.5254 31.0512 15.6647 31.9419 15.9278L31.9546 15.9316L31.9546 15.9317C35.9557 17.1581 38.9141 20.8956 38.9141 25.345V28.746C38.9141 29.1277 38.8953 29.5041 38.8783 29.8438L38.8776 29.8579L38.8773 29.8636C38.6993 33.1335 37.6816 35.7969 35.649 37.626C33.6279 39.4446 30.8036 40.2574 27.3853 40.2574H13.7809C13.3069 40.2574 12.8445 40.2193 12.415 40.1646C9.44884 39.9618 6.9972 39.0518 5.23619 37.2908C3.47519 35.5298 2.56513 33.0781 2.36236 30.112C2.30767 29.6825 2.26953 29.2201 2.26953 28.746V25.345C2.26953 21.2966 4.72699 17.8192 8.22254 16.3125L8.23717 16.3061L8.23721 16.3062Z" fill="#919191"/>
<path fill-rule="evenodd" clip-rule="evenodd" d="M12.7866 9.39714C13.092 9.77147 13.1663 10.2837 12.9797 10.7293L9.92743 18.0199C9.79661 18.3324 9.54967 18.5819 9.23858 18.716C6.66449 19.8255 4.86622 22.3828 4.86622 25.3459C4.86622 26.0684 4.28056 26.6541 3.55811 26.6541C2.83566 26.6541 2.25 26.0684 2.25 25.3459V20.2356C2.25 14.647 6.22534 9.98395 11.5202 8.94073C11.9942 8.84733 12.4811 9.02282 12.7866 9.39714ZM5.03576 18.4967C5.80699 17.704 6.71038 17.0407 7.70969 16.5425L9.41522 12.4687C7.18264 13.72 5.54799 15.9068 5.03576 18.4967Z" fill="#919191"/>
<path fill-rule="evenodd" clip-rule="evenodd" d="M31.2225 10.2855C31.6253 9.88772 32.2384 9.79428 32.7415 10.0539C36.4112 11.948 38.9088 15.8269 38.9088 20.2336V25.344C38.9088 26.0664 38.3231 26.6521 37.6007 26.6521C36.8782 26.6521 36.2926 26.0664 36.2926 25.344C36.2926 22.096 34.1361 19.3355 31.19 18.4517C30.8384 18.3462 30.5472 18.0978 30.3877 17.7671C30.2282 17.4364 30.215 17.0539 30.3514 16.713C31.2173 14.5482 31.3568 13.1042 31.0435 12.0389C31.0352 12.0107 31.0279 11.9823 31.0215 11.9536C31.0055 11.8816 30.9853 11.8289 30.9715 11.8014C30.7183 11.295 30.8196 10.6832 31.2225 10.2855ZM36.12 18.4857C35.777 16.771 34.9403 15.2287 33.7668 14.0277C33.6862 14.7986 33.5021 15.6009 33.233 16.4366C34.3176 16.9403 35.2945 17.6384 36.12 18.4857Z" fill="#919191"/>
</svg>
