<svg width="16" height="17" viewBox="0 0 16 17" fill="none" xmlns="http://www.w3.org/2000/svg">
<path fill-rule="evenodd" clip-rule="evenodd" d="M0.666656 1.47526C0.666656 1.10707 0.965133 0.808594 1.33332 0.808594H7.99999C8.3362 0.808594 8.61981 1.05895 8.66151 1.39257L8.92184 3.47526H14.6667C15.0348 3.47526 15.3333 3.77374 15.3333 4.14193V14.8086C15.3333 15.1768 15.0348 15.4753 14.6667 15.4753H6.99999C6.66377 15.4753 6.38017 15.2249 6.33847 14.8913L6.07814 12.8086H1.33332C0.965133 12.8086 0.666656 12.5101 0.666656 12.1419V1.47526ZM7.42184 12.8086L7.47713 13.2509L7.86414 12.8086H7.42184ZM8.57813 11.4753H1.99999V2.14193H7.41147L8.57813 11.4753ZM8.46917 14.1419H14V4.80859H9.08851L9.25518 6.14193H11.6667C12.0348 6.14193 12.3333 6.4404 12.3333 6.80859C12.3333 7.17678 12.0348 7.47526 11.6667 7.47526H9.42184L9.58851 8.80859H11.6667C12.0348 8.80859 12.3333 9.10707 12.3333 9.47526C12.3333 9.84345 12.0348 10.1419 11.6667 10.1419H9.75518L9.99484 12.0592C10.0184 12.248 9.96029 12.4378 9.83504 12.5809L8.46917 14.1419ZM2.66666 4.14193C2.66666 3.77374 2.96513 3.47526 3.33332 3.47526H5.66666C6.03485 3.47526 6.33332 3.77374 6.33332 4.14193C6.33332 4.51012 6.03485 4.80859 5.66666 4.80859H3.33332C2.96513 4.80859 2.66666 4.51012 2.66666 4.14193ZM2.66666 6.80859C2.66666 6.4404 2.96513 6.14193 3.33332 6.14193H5.99999C6.36818 6.14193 6.66666 6.4404 6.66666 6.80859C6.66666 7.17678 6.36818 7.47526 5.99999 7.47526H3.33332C2.96513 7.47526 2.66666 7.17678 2.66666 6.80859ZM2.66666 9.47526C2.66666 9.10707 2.96513 8.80859 3.33332 8.80859H6.33332C6.70151 8.80859 6.99999 9.10707 6.99999 9.47526C6.99999 9.84345 6.70151 10.1419 6.33332 10.1419H3.33332C2.96513 10.1419 2.66666 9.84345 2.66666 9.47526Z" fill="#444444"/>
</svg>
