<svg width="24" height="25" viewBox="0 0 24 25" fill="none" xmlns="http://www.w3.org/2000/svg">
<path fill-rule="evenodd" clip-rule="evenodd" d="M20 4.07031H4C2.34315 4.07031 1 5.41346 1 7.07031V8.17031H23V7.07031C23 5.41346 21.6569 4.07031 20 4.07031ZM1 17.0703V9.97031H23V17.0703C23 18.7272 21.6569 20.0703 20 20.0703H4C2.34315 20.0703 1 18.7272 1 17.0703ZM13 14.1703C12.5029 14.1703 12.1 14.5733 12.1 15.0703C12.1 15.5674 12.5029 15.9703 13 15.9703H18C18.4971 15.9703 18.9 15.5674 18.9 15.0703C18.9 14.5733 18.4971 14.1703 18 14.1703H13Z" fill="#444444"/>
</svg>
