<svg width="16" height="16" viewBox="0 0 16 16" fill="none" xmlns="http://www.w3.org/2000/svg">
<path fill-rule="evenodd" clip-rule="evenodd" d="M0.582031 5.33398C0.582031 3.8152 1.81325 2.58398 3.33203 2.58398H12.6654C14.1842 2.58398 15.4154 3.8152 15.4154 5.33398V6.00065V10.6673C15.4154 12.1861 14.1841 13.4173 12.6654 13.4173H3.33203C1.81325 13.4173 0.582031 12.1861 0.582031 10.6673V6.00065V5.33398ZM2.08477 5.25065H13.9126C13.8698 4.59915 13.3277 4.08398 12.6654 4.08398H3.33203C2.66968 4.08398 2.12765 4.59915 2.08477 5.25065ZM13.9154 6.75065H2.08203V10.6673C2.08203 11.3577 2.64167 11.9173 3.33203 11.9173H12.6654C13.3557 11.9173 13.9154 11.3577 13.9154 10.6673V6.75065ZM8.58203 10.0007C8.58203 9.58644 8.91782 9.25065 9.33203 9.25065H11.9987C12.4129 9.25065 12.7487 9.58644 12.7487 10.0007C12.7487 10.4149 12.4129 10.7507 11.9987 10.7507H9.33203C8.91782 10.7507 8.58203 10.4149 8.58203 10.0007Z" fill="#1A8917"/>
</svg>
