<svg width="24" height="24" viewBox="0 0 24 24" fill="none" xmlns="http://www.w3.org/2000/svg">
<path fill-rule="evenodd" clip-rule="evenodd" d="M3 6V10.7574C3 11.553 3.31607 12.3161 3.87868 12.8787L11.8787 20.8787C13.0503 22.0503 14.9497 22.0503 16.1213 20.8787L20.8787 16.1213C22.0503 14.9497 22.0503 13.0503 20.8787 11.8787L12.8787 3.87868C12.3161 3.31607 11.553 3 10.7574 3H6C4.34315 3 3 4.34315 3 6ZM9 11C10.1046 11 11 10.1046 11 9C11 7.89543 10.1046 7 9 7C7.89543 7 7 7.89543 7 9C7 10.1046 7.89543 11 9 11Z" fill="#444444"/>
</svg>
