<svg width="24" height="24" viewBox="0 0 24 24" fill="none" xmlns="http://www.w3.org/2000/svg">
<path opacity="0.4" d="M4 14.5H8.17V21.5H2.5V16C2.5 15.1761 3.17614 14.5 4 14.5Z" fill="#1A8917" stroke="#1A8917"/>
<path d="M10.6602 10.5H13.3302C14.1624 10.5 14.8302 11.1745 14.8302 12V21.5H9.16016V12C9.16016 11.1761 9.8363 10.5 10.6602 10.5Z" fill="#1A8917" stroke="#1A8917"/>
<path opacity="0.4" d="M15.8281 21.5V17.5H19.9981C20.822 17.5 21.4981 18.1761 21.4981 19V21.5H15.8281Z" fill="#1A8917" stroke="#1A8917"/>
<path d="M15.0116 4.85048C15.3216 4.54048 15.4416 4.17048 15.3416 3.85048C15.2416 3.53048 14.9316 3.30049 14.4916 3.23049L13.5316 3.07048C13.4916 3.06048 13.4016 3.00047 13.3816 2.96047L12.8516 1.90047C12.4516 1.09047 11.5416 1.09047 11.1416 1.90047L10.6116 2.96047C10.5916 3.00047 10.5016 3.06048 10.4616 3.07048L9.50164 3.23049C9.06164 3.30049 8.76164 3.53048 8.65164 3.85048C8.55164 4.17048 8.67164 4.54048 8.98164 4.85048L9.72164 5.60048C9.75164 5.63048 9.79164 5.75048 9.78164 5.79048L9.57164 6.71047C9.41164 7.39047 9.67164 7.70046 9.84164 7.83046C10.0116 7.95046 10.3816 8.11048 10.9916 7.75047L11.8916 7.22048C11.9316 7.19048 12.0616 7.19048 12.1016 7.22048L13.0016 7.75047C13.2816 7.92048 13.5116 7.97048 13.6916 7.97048C13.9016 7.97048 14.0516 7.89046 14.1416 7.83046C14.3116 7.71046 14.5716 7.40047 14.4116 6.71047L14.2016 5.79048C14.1916 5.74048 14.2216 5.63048 14.2616 5.60048L15.0116 4.85048Z" fill="#F2C94C"/>
</svg>
