<svg width="24" height="25" viewBox="0 0 24 25" fill="none" xmlns="http://www.w3.org/2000/svg">
<path d="M9.30957 15.0098L10.8096 16.5098L14.8096 12.5098" stroke="#076007" stroke-width="1.5" stroke-linecap="round" stroke-linejoin="round"/>
<path d="M10 6.31055H14C16 6.31055 16 5.31055 16 4.31055C16 2.31055 15 2.31055 14 2.31055H10C9 2.31055 8 2.31055 8 4.31055C8 6.31055 9 6.31055 10 6.31055Z" stroke="#076007" stroke-width="1.5" stroke-miterlimit="10" stroke-linecap="round" stroke-linejoin="round"/>
<path d="M16 4.33008C19.33 4.51008 21 5.74008 21 10.3101V16.3101C21 20.3101 20 22.3101 15 22.3101H9C4 22.3101 3 20.3101 3 16.3101V10.3101C3 5.75008 4.67 4.51008 8 4.33008" stroke="#076007" stroke-width="1.5" stroke-miterlimit="10" stroke-linecap="round" stroke-linejoin="round"/>
</svg>
