<svg width="24" height="25" viewBox="0 0 24 25" fill="none" xmlns="http://www.w3.org/2000/svg">
<path d="M6.73 19.7352C7.55 18.8552 8.8 18.9252 9.52 19.8852L10.53 21.2352C11.34 22.3052 12.65 22.3052 13.46 21.2352L14.47 19.8852C15.19 18.9252 16.44 18.8552 17.26 19.7352C19.04 21.6352 20.49 21.0052 20.49 18.3452V7.07516C20.5 3.04516 19.56 2.03516 15.78 2.03516H8.22C4.44 2.03516 3.5 3.04516 3.5 7.07516V18.3352C3.5 21.0052 4.96 21.6252 6.73 19.7352Z" stroke="#076007" stroke-width="1.5" stroke-linecap="round" stroke-linejoin="round"/>
<path d="M8.09607 11.0352H8.10505" stroke="#076007" stroke-width="2" stroke-linecap="round" stroke-linejoin="round"/>
<path d="M10.8984 11.0352H16.3984" stroke="#076007" stroke-width="1.5" stroke-linecap="round" stroke-linejoin="round"/>
<path d="M8.09607 7.03516H8.10505" stroke="#076007" stroke-width="2" stroke-linecap="round" stroke-linejoin="round"/>
<path d="M10.8984 7.03516H16.3984" stroke="#076007" stroke-width="1.5" stroke-linecap="round" stroke-linejoin="round"/>
</svg>
