<svg width="32" height="32" viewBox="0 0 32 32" fill="none" xmlns="http://www.w3.org/2000/svg">
<path fill-rule="evenodd" clip-rule="evenodd" d="M12.0397 4.45827C14.6445 3.84725 17.3555 3.84724 19.9603 4.45826C23.7221 5.34066 26.6593 8.27789 27.5417 12.0397C28.1528 14.6445 28.1528 17.3555 27.5417 19.9603C26.6593 23.7221 23.7221 26.6593 19.9603 27.5417C17.3555 28.1528 14.6445 28.1528 12.0397 27.5417C8.27789 26.6593 5.34066 23.7221 4.45827 19.9603C3.84724 17.3555 3.84724 14.6445 4.45827 12.0397C5.34066 8.27788 8.27789 5.34066 12.0397 4.45827ZM14.1821 18.6494C13.883 18.9485 13.883 19.4334 14.1821 19.7324C14.4811 20.0315 14.966 20.0315 15.2651 19.7324L18.4561 16.5415C18.5997 16.3979 18.6804 16.2031 18.6804 16C18.6804 15.7969 18.5997 15.6021 18.4561 15.4584L15.2651 12.2675C14.966 11.9684 14.4811 11.9684 14.1821 12.2675C13.883 12.5666 13.883 13.0515 14.1821 13.3505L16.8315 16L14.1821 18.6494Z" fill="#1A8917"/>
</svg>
