<svg width="43" height="43" viewBox="0 0 43 43" fill="none" xmlns="http://www.w3.org/2000/svg">
<path fill-rule="evenodd" clip-rule="evenodd" d="M3 15.4077C3 14.6853 3.58566 14.0996 4.30811 14.0996H26.11C26.8324 14.0996 27.4181 14.6853 27.4181 15.4077C27.4181 16.1302 26.8324 16.7158 26.11 16.7158H4.30811C3.58566 16.7158 3 16.1302 3 15.4077Z" fill="#919191"/>
<path fill-rule="evenodd" clip-rule="evenodd" d="M9.97656 29.3608C9.97656 28.6384 10.5622 28.0527 11.2847 28.0527H14.773C15.4954 28.0527 16.0811 28.6384 16.0811 29.3608C16.0811 30.0833 15.4954 30.669 14.773 30.669H11.2847C10.5622 30.669 9.97656 30.0833 9.97656 29.3608Z" fill="#919191"/>
<path fill-rule="evenodd" clip-rule="evenodd" d="M17.8242 29.3608C17.8242 28.6384 18.4099 28.0527 19.1323 28.0527H26.1089C26.8314 28.0527 27.417 28.6384 27.417 29.3608C27.417 30.0833 26.8314 30.669 26.1089 30.669H19.1323C18.4099 30.669 17.8242 30.0833 17.8242 29.3608Z" fill="#919191"/>
<path fill-rule="evenodd" clip-rule="evenodd" d="M6.77795 9.14989C6.03658 9.88291 5.61622 11.2762 5.61622 14.3438V28.6807C5.61622 31.7484 6.03658 33.1417 6.77795 33.8747C7.52448 34.6128 8.94581 35.0295 12.0521 35.0295H31.4471C34.5534 35.0295 35.9747 34.6128 36.7213 33.8747C37.4626 33.1417 37.883 31.7484 37.883 28.6807V25.0529C37.883 24.3305 38.4687 23.7448 39.1911 23.7448C39.9136 23.7448 40.4992 24.3305 40.4992 25.0529V28.6807C40.4992 31.7351 40.1434 34.1702 38.5607 35.7351C36.9832 37.2949 34.5325 37.6457 31.4471 37.6457H12.0521C8.96673 37.6457 6.51606 37.2949 4.9385 35.7351C3.35579 34.1702 3 31.7351 3 28.6807V14.3438C3 11.2895 3.35579 8.85438 4.9385 7.28949C6.51606 5.7297 8.96673 5.37891 12.0521 5.37891H26.11C26.8324 5.37891 27.4181 5.96457 27.4181 6.68702C27.4181 7.40947 26.8324 7.99513 26.11 7.99513H12.0521C8.94581 7.99513 7.52448 8.41176 6.77795 9.14989Z" fill="#919191"/>
<path fill-rule="evenodd" clip-rule="evenodd" d="M35.2021 5.47852C35.6909 5.27605 36.2535 5.38796 36.6276 5.76208L40.1159 9.25038C40.6268 9.76123 40.6268 10.5895 40.1159 11.1003C39.6051 11.6112 38.7768 11.6112 38.266 11.1003L37.0108 9.84512V17.152C37.0108 17.8744 36.4251 18.4601 35.7026 18.4601C34.9802 18.4601 34.3945 17.8744 34.3945 17.152V6.68706C34.3945 6.15797 34.7132 5.68099 35.2021 5.47852Z" fill="#919191"/>
<path fill-rule="evenodd" clip-rule="evenodd" d="M36.6276 5.76204C37.1385 6.27289 37.1385 7.10114 36.6276 7.61199L33.1393 11.1003C32.6285 11.6111 31.8002 11.6111 31.2894 11.1003C30.7785 10.5894 30.7785 9.76119 31.2894 9.25034L34.7777 5.76204C35.2885 5.25119 36.1168 5.25119 36.6276 5.76204Z" fill="#919191"/>
</svg>
