<svg width="16" height="17" viewBox="0 0 16 17" fill="none" xmlns="http://www.w3.org/2000/svg">
<mask id="path-1-inside-1" fill="white">
<path d="M8 10.8105C6.62 10.8105 5.5 9.69055 5.5 8.31055C5.5 6.93055 6.62 5.81055 8 5.81055C9.38 5.81055 10.5 6.93055 10.5 8.31055C10.5 9.69055 9.38 10.8105 8 10.8105ZM8 6.81055C7.17333 6.81055 6.5 7.48388 6.5 8.31055C6.5 9.13721 7.17333 9.81055 8 9.81055C8.82667 9.81055 9.5 9.13721 9.5 8.31055C9.5 7.48388 8.82667 6.81055 8 6.81055Z"/>
</mask>
<path d="M8 10.8105C6.62 10.8105 5.5 9.69055 5.5 8.31055C5.5 6.93055 6.62 5.81055 8 5.81055C9.38 5.81055 10.5 6.93055 10.5 8.31055C10.5 9.69055 9.38 10.8105 8 10.8105ZM8 6.81055C7.17333 6.81055 6.5 7.48388 6.5 8.31055C6.5 9.13721 7.17333 9.81055 8 9.81055C8.82667 9.81055 9.5 9.13721 9.5 8.31055C9.5 7.48388 8.82667 6.81055 8 6.81055Z" fill="#292D32"/>
<path d="M8 9.61055C7.28274 9.61055 6.7 9.02781 6.7 8.31055H4.3C4.3 10.3533 5.95726 12.0105 8 12.0105V9.61055ZM6.7 8.31055C6.7 7.59329 7.28274 7.01055 8 7.01055V4.61055C5.95726 4.61055 4.3 6.26781 4.3 8.31055H6.7ZM8 7.01055C8.71726 7.01055 9.3 7.59329 9.3 8.31055H11.7C11.7 6.26781 10.0427 4.61055 8 4.61055V7.01055ZM9.3 8.31055C9.3 9.02781 8.71726 9.61055 8 9.61055V12.0105C10.0427 12.0105 11.7 10.3533 11.7 8.31055H9.3ZM8 5.61055C6.51059 5.61055 5.3 6.82114 5.3 8.31055H7.7C7.7 8.14662 7.83608 8.01055 8 8.01055V5.61055ZM5.3 8.31055C5.3 9.79996 6.51059 11.0105 8 11.0105V8.61055C7.83608 8.61055 7.7 8.47447 7.7 8.31055H5.3ZM8 11.0105C9.48941 11.0105 10.7 9.79996 10.7 8.31055H8.3C8.3 8.47447 8.16392 8.61055 8 8.61055V11.0105ZM10.7 8.31055C10.7 6.82114 9.48941 5.61055 8 5.61055V8.01055C8.16392 8.01055 8.3 8.14662 8.3 8.31055H10.7Z" fill="#076007" mask="url(#path-1-inside-1)"/>
<mask id="path-3-inside-2" fill="white">
<path d="M10.1397 15.1047C9.99967 15.1047 9.85967 15.0847 9.71968 15.0514C9.30634 14.9381 8.95967 14.6781 8.73967 14.3114L8.65967 14.1781C8.26634 13.4981 7.72634 13.4981 7.33301 14.1781L7.25968 14.3047C7.03967 14.6781 6.69301 14.9447 6.27967 15.0514C5.85967 15.1647 5.42634 15.1047 5.05967 14.8847L3.91301 14.2247C3.50634 13.9914 3.21301 13.6114 3.08634 13.1514C2.96634 12.6914 3.02634 12.2181 3.25967 11.8114C3.45301 11.4714 3.50634 11.1647 3.39301 10.9714C3.27967 10.7781 2.99301 10.6647 2.59967 10.6647C1.62634 10.6647 0.833008 9.87139 0.833008 8.89806V7.72472C0.833008 6.75139 1.62634 5.95806 2.59967 5.95806C2.99301 5.95806 3.27967 5.84472 3.39301 5.65139C3.50634 5.45806 3.45967 5.15139 3.25967 4.81139C3.02634 4.40472 2.96634 3.92472 3.08634 3.47139C3.20634 3.01139 3.49967 2.63139 3.91301 2.39806L5.06634 1.73806C5.81967 1.29139 6.81301 1.55139 7.26634 2.31806L7.34634 2.45139C7.73968 3.13139 8.27968 3.13139 8.67301 2.45139L8.74634 2.32472C9.19967 1.55139 10.193 1.29139 10.953 1.74472L12.0997 2.40472C12.5063 2.63806 12.7997 3.01806 12.9263 3.47806C13.0463 3.93806 12.9863 4.41139 12.753 4.81806C12.5597 5.15806 12.5063 5.46472 12.6197 5.65806C12.733 5.85139 13.0197 5.96472 13.413 5.96472C14.3863 5.96472 15.1797 6.75806 15.1797 7.73139V8.90472C15.1797 9.87806 14.3863 10.6714 13.413 10.6714C13.0197 10.6714 12.733 10.7847 12.6197 10.9781C12.5063 11.1714 12.553 11.4781 12.753 11.8181C12.9863 12.2247 13.053 12.7047 12.9263 13.1581C12.8063 13.6181 12.513 13.9981 12.0997 14.2314L10.9463 14.8914C10.693 15.0314 10.4197 15.1047 10.1397 15.1047ZM7.99967 12.6381C8.59301 12.6381 9.14634 13.0114 9.52634 13.6714L9.59967 13.7981C9.67967 13.9381 9.81301 14.0381 9.97301 14.0781C10.133 14.1181 10.293 14.0981 10.4263 14.0181L11.5797 13.3514C11.753 13.2514 11.8863 13.0847 11.9397 12.8847C11.993 12.6847 11.9663 12.4781 11.8663 12.3047C11.4863 11.6514 11.4397 10.9781 11.733 10.4647C12.0263 9.95139 12.633 9.65806 13.393 9.65806C13.8197 9.65806 14.1597 9.31806 14.1597 8.89139V7.71806C14.1597 7.29806 13.8197 6.95139 13.393 6.95139C12.633 6.95139 12.0263 6.65806 11.733 6.14472C11.4397 5.63139 11.4863 4.95806 11.8663 4.30472C11.9663 4.13139 11.993 3.92472 11.9397 3.72472C11.8863 3.52472 11.7597 3.36472 11.5863 3.25806L10.433 2.59806C10.1463 2.42472 9.76634 2.52472 9.59301 2.81806L9.51967 2.94472C9.13967 3.60472 8.58634 3.97806 7.99301 3.97806C7.39967 3.97806 6.84634 3.60472 6.46634 2.94472L6.39301 2.81139C6.22634 2.53139 5.85301 2.43139 5.56634 2.59806L4.41301 3.26472C4.23967 3.36472 4.10634 3.53139 4.05301 3.73139C3.99967 3.93139 4.02634 4.13806 4.12634 4.31139C4.50634 4.96472 4.55301 5.63806 4.25967 6.15139C3.96634 6.66472 3.35967 6.95806 2.59967 6.95806C2.17301 6.95806 1.83301 7.29806 1.83301 7.72472V8.89806C1.83301 9.31806 2.17301 9.66472 2.59967 9.66472C3.35967 9.66472 3.96634 9.95806 4.25967 10.4714C4.55301 10.9847 4.50634 11.6581 4.12634 12.3114C4.02634 12.4847 3.99967 12.6914 4.05301 12.8914C4.10634 13.0914 4.23301 13.2514 4.40634 13.3581L5.55967 14.0181C5.69967 14.1047 5.86634 14.1247 6.01967 14.0847C6.17967 14.0447 6.31301 13.9381 6.39967 13.7981L6.47301 13.6714C6.85301 13.0181 7.40634 12.6381 7.99967 12.6381Z"/>
</mask>
<path d="M10.1397 15.1047C9.99967 15.1047 9.85967 15.0847 9.71968 15.0514C9.30634 14.9381 8.95967 14.6781 8.73967 14.3114L8.65967 14.1781C8.26634 13.4981 7.72634 13.4981 7.33301 14.1781L7.25968 14.3047C7.03967 14.6781 6.69301 14.9447 6.27967 15.0514C5.85967 15.1647 5.42634 15.1047 5.05967 14.8847L3.91301 14.2247C3.50634 13.9914 3.21301 13.6114 3.08634 13.1514C2.96634 12.6914 3.02634 12.2181 3.25967 11.8114C3.45301 11.4714 3.50634 11.1647 3.39301 10.9714C3.27967 10.7781 2.99301 10.6647 2.59967 10.6647C1.62634 10.6647 0.833008 9.87139 0.833008 8.89806V7.72472C0.833008 6.75139 1.62634 5.95806 2.59967 5.95806C2.99301 5.95806 3.27967 5.84472 3.39301 5.65139C3.50634 5.45806 3.45967 5.15139 3.25967 4.81139C3.02634 4.40472 2.96634 3.92472 3.08634 3.47139C3.20634 3.01139 3.49967 2.63139 3.91301 2.39806L5.06634 1.73806C5.81967 1.29139 6.81301 1.55139 7.26634 2.31806L7.34634 2.45139C7.73968 3.13139 8.27968 3.13139 8.67301 2.45139L8.74634 2.32472C9.19967 1.55139 10.193 1.29139 10.953 1.74472L12.0997 2.40472C12.5063 2.63806 12.7997 3.01806 12.9263 3.47806C13.0463 3.93806 12.9863 4.41139 12.753 4.81806C12.5597 5.15806 12.5063 5.46472 12.6197 5.65806C12.733 5.85139 13.0197 5.96472 13.413 5.96472C14.3863 5.96472 15.1797 6.75806 15.1797 7.73139V8.90472C15.1797 9.87806 14.3863 10.6714 13.413 10.6714C13.0197 10.6714 12.733 10.7847 12.6197 10.9781C12.5063 11.1714 12.553 11.4781 12.753 11.8181C12.9863 12.2247 13.053 12.7047 12.9263 13.1581C12.8063 13.6181 12.513 13.9981 12.0997 14.2314L10.9463 14.8914C10.693 15.0314 10.4197 15.1047 10.1397 15.1047ZM7.99967 12.6381C8.59301 12.6381 9.14634 13.0114 9.52634 13.6714L9.59967 13.7981C9.67967 13.9381 9.81301 14.0381 9.97301 14.0781C10.133 14.1181 10.293 14.0981 10.4263 14.0181L11.5797 13.3514C11.753 13.2514 11.8863 13.0847 11.9397 12.8847C11.993 12.6847 11.9663 12.4781 11.8663 12.3047C11.4863 11.6514 11.4397 10.9781 11.733 10.4647C12.0263 9.95139 12.633 9.65806 13.393 9.65806C13.8197 9.65806 14.1597 9.31806 14.1597 8.89139V7.71806C14.1597 7.29806 13.8197 6.95139 13.393 6.95139C12.633 6.95139 12.0263 6.65806 11.733 6.14472C11.4397 5.63139 11.4863 4.95806 11.8663 4.30472C11.9663 4.13139 11.993 3.92472 11.9397 3.72472C11.8863 3.52472 11.7597 3.36472 11.5863 3.25806L10.433 2.59806C10.1463 2.42472 9.76634 2.52472 9.59301 2.81806L9.51967 2.94472C9.13967 3.60472 8.58634 3.97806 7.99301 3.97806C7.39967 3.97806 6.84634 3.60472 6.46634 2.94472L6.39301 2.81139C6.22634 2.53139 5.85301 2.43139 5.56634 2.59806L4.41301 3.26472C4.23967 3.36472 4.10634 3.53139 4.05301 3.73139C3.99967 3.93139 4.02634 4.13806 4.12634 4.31139C4.50634 4.96472 4.55301 5.63806 4.25967 6.15139C3.96634 6.66472 3.35967 6.95806 2.59967 6.95806C2.17301 6.95806 1.83301 7.29806 1.83301 7.72472V8.89806C1.83301 9.31806 2.17301 9.66472 2.59967 9.66472C3.35967 9.66472 3.96634 9.95806 4.25967 10.4714C4.55301 10.9847 4.50634 11.6581 4.12634 12.3114C4.02634 12.4847 3.99967 12.6914 4.05301 12.8914C4.10634 13.0914 4.23301 13.2514 4.40634 13.3581L5.55967 14.0181C5.69967 14.1047 5.86634 14.1247 6.01967 14.0847C6.17967 14.0447 6.31301 13.9381 6.39967 13.7981L6.47301 13.6714C6.85301 13.0181 7.40634 12.6381 7.99967 12.6381Z" fill="#292D32"/>
<path d="M9.71968 15.0514L9.40235 16.2087L9.42196 16.214L9.44173 16.2188L9.71968 15.0514ZM8.73967 14.3114L7.71068 14.9288L7.71068 14.9288L8.73967 14.3114ZM8.65967 14.1781L7.62093 14.7789L7.62574 14.7872L7.63068 14.7954L8.65967 14.1781ZM7.33301 14.1781L8.37152 14.7793L8.37175 14.7789L7.33301 14.1781ZM7.25968 14.3047L8.29355 14.914L8.29819 14.906L7.25968 14.3047ZM6.27967 15.0514L5.9798 13.8894L5.96705 13.8928L6.27967 15.0514ZM5.05967 14.8847L5.67707 13.8557L5.66773 13.8501L5.65829 13.8447L5.05967 14.8847ZM3.91301 14.2247L4.51163 13.1847L4.51021 13.1839L3.91301 14.2247ZM3.08634 13.1514L1.9252 13.4543L1.92725 13.4621L1.9294 13.47L3.08634 13.1514ZM3.25967 11.8114L4.30052 12.4086L4.30282 12.4046L3.25967 11.8114ZM3.25967 4.81139L2.21877 5.40863L2.22535 5.41981L3.25967 4.81139ZM3.08634 3.47139L4.2464 3.77846L4.24748 3.7743L3.08634 3.47139ZM3.91301 2.39806L4.50293 3.44306L4.50902 3.43958L3.91301 2.39806ZM5.06634 1.73806L5.66236 2.77958L5.67039 2.77498L5.67835 2.77026L5.06634 1.73806ZM7.26634 2.31806L6.23339 2.92885L6.23735 2.93545L7.26634 2.31806ZM7.34634 2.45139L8.38509 1.85055L8.38027 1.84223L8.37533 1.83399L7.34634 2.45139ZM8.67301 2.45139L7.6345 1.85015L7.63426 1.85055L8.67301 2.45139ZM8.74634 2.32472L7.71109 1.71785L7.70783 1.72348L8.74634 2.32472ZM10.953 1.74472L10.3383 2.77531L10.3463 2.78009L10.3544 2.78475L10.953 1.74472ZM12.0997 2.40472L11.5011 3.44475L11.5025 3.44556L12.0997 2.40472ZM12.9263 3.47806L14.0875 3.17515L14.0854 3.1673L14.0833 3.15948L12.9263 3.47806ZM12.753 4.81806L11.7122 4.22085L11.7099 4.22489L12.753 4.81806ZM12.753 11.8181L13.7939 11.2208L13.7873 11.2096L12.753 11.8181ZM12.9263 13.1581L11.7706 12.8351L11.7678 12.8451L11.7652 12.8551L12.9263 13.1581ZM12.0997 14.2314L11.5098 13.1864L11.5037 13.1899L12.0997 14.2314ZM10.9463 14.8914L11.5268 15.9417L11.5346 15.9374L11.5424 15.9329L10.9463 14.8914ZM9.52634 13.6714L8.48639 14.2701L8.48783 14.2726L9.52634 13.6714ZM9.59967 13.7981L10.6416 13.2027L10.6382 13.1968L9.59967 13.7981ZM10.4263 14.0181L9.82581 12.9791L9.81734 12.984L9.80895 12.9891L10.4263 14.0181ZM11.5797 13.3514L10.98 12.312L10.9791 12.3125L11.5797 13.3514ZM11.8663 12.3047L12.9058 11.7051L12.9036 11.7014L11.8663 12.3047ZM11.8663 4.30472L12.9036 4.90805L12.9058 4.90439L11.8663 4.30472ZM11.5863 3.25806L12.2153 2.23607L12.199 2.22604L12.1824 2.21653L11.5863 3.25806ZM10.433 2.59806L9.8121 3.62493L9.82446 3.63241L9.83699 3.63958L10.433 2.59806ZM9.59301 2.81806L8.55986 2.20756L8.5545 2.21681L9.59301 2.81806ZM9.51967 2.94472L8.48116 2.34347L8.47973 2.34596L9.51967 2.94472ZM6.46634 2.94472L5.41488 3.52302L5.42054 3.53331L5.42639 3.54348L6.46634 2.94472ZM6.39301 2.81139L7.44447 2.23309L7.43462 2.21518L7.42416 2.19761L6.39301 2.81139ZM5.56634 2.59806L6.16688 3.63698L6.16949 3.63546L5.56634 2.59806ZM4.41301 3.26472L5.01268 4.30415L5.01354 4.30364L4.41301 3.26472ZM4.12634 4.31139L3.08691 4.91106L3.08904 4.91472L4.12634 4.31139ZM4.12634 12.3114L3.08903 11.7081L3.08692 11.7117L4.12634 12.3114ZM4.40634 13.3581L3.77742 14.38L3.79372 14.3901L3.81033 14.3996L4.40634 13.3581ZM5.55967 14.0181L6.1913 12.9977L6.17368 12.9868L6.15569 12.9765L5.55967 14.0181ZM6.01967 14.0847L5.72862 12.9205L5.71677 12.9236L6.01967 14.0847ZM6.39967 13.7981L7.41999 14.4297L7.42931 14.4146L7.43819 14.3993L6.39967 13.7981ZM6.47301 13.6714L5.4357 13.0681L5.4345 13.0701L6.47301 13.6714ZM10.1397 13.9047C10.1135 13.9047 10.0687 13.9009 9.99762 13.884L9.44173 16.2188C9.6507 16.2685 9.8858 16.3047 10.1397 16.3047V13.9047ZM10.037 13.8941C9.91637 13.861 9.82703 13.7913 9.76867 13.694L7.71068 14.9288C8.09232 15.5648 8.69631 16.0151 9.40235 16.2087L10.037 13.8941ZM9.76867 13.694L9.68867 13.5607L7.63068 14.7954L7.71068 14.9288L9.76867 13.694ZM9.69842 13.5772C9.41579 13.0886 8.86426 12.4681 7.99634 12.4681C7.12842 12.4681 6.57689 13.0886 6.29426 13.5772L8.37175 14.7789C8.41464 14.7048 8.42492 14.7146 8.37603 14.7517C8.31888 14.795 8.18698 14.8681 7.99634 14.8681C7.80571 14.8681 7.6738 14.795 7.61665 14.7517C7.56777 14.7146 7.57805 14.7048 7.62093 14.7789L9.69842 13.5772ZM6.2945 13.5768L6.22116 13.7035L8.29819 14.906L8.37152 14.7793L6.2945 13.5768ZM6.22583 13.6955C6.16139 13.8048 6.07344 13.8653 5.97982 13.8895L6.57953 16.2133C7.31258 16.0241 7.91796 15.5513 8.29352 14.914L6.22583 13.6955ZM5.96705 13.8928C5.85812 13.9222 5.76096 13.9061 5.67707 13.8557L4.44228 15.9137C5.09173 16.3034 5.86123 16.4072 6.5923 16.21L5.96705 13.8928ZM5.65829 13.8447L4.51163 13.1847L3.31439 15.2647L4.46106 15.9247L5.65829 13.8447ZM4.51021 13.1839C4.38213 13.1104 4.28717 12.9922 4.24328 12.8328L1.9294 13.47C2.13884 14.2306 2.63055 14.8724 3.3158 15.2656L4.51021 13.1839ZM4.24748 12.8485C4.20469 12.6845 4.22783 12.5353 4.30051 12.4086L2.21883 11.2142C1.82486 11.9008 1.72799 12.6983 1.9252 13.4543L4.24748 12.8485ZM4.30282 12.4046C4.44772 12.1497 4.57323 11.8518 4.62575 11.5292C4.67753 11.2111 4.67053 10.7778 4.42825 10.3645L2.35777 11.5783C2.22882 11.3583 2.25181 11.175 2.25693 11.1436C2.26279 11.1076 2.26496 11.133 2.21653 11.2182L4.30282 12.4046ZM4.42825 10.3645C3.97886 9.59793 3.10857 9.46472 2.59967 9.46472V11.8647C2.68972 11.8647 2.70458 11.8788 2.66641 11.864C2.63053 11.85 2.47619 11.7803 2.35777 11.5783L4.42825 10.3645ZM2.59967 9.46472C2.28908 9.46472 2.03301 9.20865 2.03301 8.89806H-0.366992C-0.366992 10.5341 0.9636 11.8647 2.59967 11.8647V9.46472ZM2.03301 8.89806V7.72472H-0.366992V8.89806H2.03301ZM2.03301 7.72472C2.03301 7.41413 2.28908 7.15806 2.59967 7.15806V4.75806C0.9636 4.75806 -0.366992 6.08865 -0.366992 7.72472H2.03301ZM2.59967 7.15806C3.10857 7.15806 3.97886 7.02485 4.42825 6.25825L2.35777 5.04453C2.47619 4.84251 2.63053 4.77277 2.66641 4.75882C2.70458 4.74397 2.68972 4.75806 2.59967 4.75806V7.15806ZM4.42825 6.25825C4.88726 5.47522 4.55019 4.63849 4.294 4.20296L2.22535 5.41981C2.27066 5.49683 2.2651 5.51544 2.25836 5.47248C2.25209 5.43253 2.23411 5.25548 2.35777 5.04453L4.42825 6.25825ZM4.30051 4.21419C4.22744 4.08682 4.20564 3.93241 4.24639 3.77846L1.92629 3.16432C1.72705 3.91704 1.82524 4.72262 2.21883 5.40859L4.30051 4.21419ZM4.24748 3.7743C4.28519 3.62974 4.37181 3.51706 4.50292 3.44304L3.32309 1.35307C2.62754 1.74572 2.12749 2.39304 1.9252 3.16848L4.24748 3.7743ZM4.50902 3.43958L5.66236 2.77958L4.47033 0.696534L3.31699 1.35653L4.50902 3.43958ZM5.67835 2.77026C5.84867 2.66927 6.11026 2.72057 6.23341 2.92883L8.29927 1.70728C7.51576 0.382211 5.79068 -0.0864961 4.45433 0.705854L5.67835 2.77026ZM6.23735 2.93545L6.31735 3.06879L8.37533 1.83399L8.29533 1.70066L6.23735 2.93545ZM6.3076 3.05223C6.59022 3.54083 7.14175 4.16139 8.00968 4.16139C8.8776 4.16139 9.42913 3.54083 9.71175 3.05223L7.63426 1.85055C7.59138 1.92469 7.5811 1.91481 7.62998 1.87774C7.68714 1.8344 7.81904 1.76139 8.00968 1.76139C8.20031 1.76139 8.33221 1.8344 8.38937 1.87774C8.43825 1.91481 8.42797 1.92469 8.38509 1.85055L6.3076 3.05223ZM9.71152 3.05263L9.78485 2.92596L7.70783 1.72348L7.6345 1.85015L9.71152 3.05263ZM9.78158 2.93159C9.90409 2.7226 10.1609 2.6695 10.3383 2.77531L11.5677 0.714139C10.2251 -0.0867256 8.49526 0.38018 7.7111 1.71786L9.78158 2.93159ZM10.3544 2.78475L11.5011 3.44475L12.6983 1.3647L11.5516 0.704696L10.3544 2.78475ZM11.5025 3.44556C11.6306 3.51905 11.7255 3.63724 11.7694 3.79663L14.0833 3.15948C13.8738 2.39887 13.3821 1.75706 12.6969 1.36388L11.5025 3.44556ZM11.7652 3.78096C11.808 3.94498 11.7849 4.09417 11.7122 4.22085L13.7938 5.41526C14.1878 4.72861 14.2847 3.93113 14.0875 3.17515L11.7652 3.78096ZM11.7099 4.22489C11.565 4.47971 11.4395 4.77762 11.3869 5.10025C11.3351 5.41835 11.3421 5.85161 11.5844 6.26492L13.6549 5.05119C13.7839 5.27117 13.7609 5.45443 13.7558 5.48587C13.7499 5.52183 13.7477 5.4964 13.7962 5.41122L11.7099 4.22489ZM11.5844 6.26492C12.0338 7.03152 12.9041 7.16472 13.413 7.16472V4.76472C13.323 4.76472 13.3081 4.75064 13.3463 4.76548C13.3822 4.77943 13.5365 4.84918 13.6549 5.05119L11.5844 6.26492ZM13.413 7.16472C13.7236 7.16472 13.9797 7.4208 13.9797 7.73139H16.3797C16.3797 6.09531 15.0491 4.76472 13.413 4.76472V7.16472ZM13.9797 7.73139V8.90472H16.3797V7.73139H13.9797ZM13.9797 8.90472C13.9797 9.21531 13.7236 9.47139 13.413 9.47139V11.8714C15.0491 11.8714 16.3797 10.5408 16.3797 8.90472H13.9797ZM13.413 9.47139C12.9041 9.47139 12.0338 9.6046 11.5844 10.3712L13.6549 11.5849C13.5365 11.7869 13.3822 11.8567 13.3463 11.8706C13.3081 11.8855 13.323 11.8714 13.413 11.8714V9.47139ZM11.5844 10.3712C11.1254 11.1542 11.4625 11.9909 11.7187 12.4265L13.7873 11.2096C13.742 11.1326 13.7476 11.114 13.7543 11.157C13.7606 11.1969 13.7786 11.374 13.6549 11.5849L11.5844 10.3712ZM11.7122 12.4153C11.7915 12.5535 11.8075 12.7029 11.7706 12.8351L14.0821 13.481C14.2985 12.7065 14.1812 11.896 13.7938 11.2209L11.7122 12.4153ZM11.7652 12.8551C11.7275 12.9997 11.6409 13.1124 11.5098 13.1864L12.6896 15.2764C13.3851 14.8837 13.8852 14.2364 14.0875 13.461L11.7652 12.8551ZM11.5037 13.1899L10.3503 13.8499L11.5424 15.9329L12.6957 15.2729L11.5037 13.1899ZM10.3659 13.8411C10.28 13.8886 10.2052 13.9047 10.1397 13.9047V16.3047C10.6341 16.3047 11.106 16.1742 11.5268 15.9417L10.3659 13.8411ZM7.99967 13.8381C8.04164 13.8381 8.25171 13.8625 8.48639 14.2701L10.5663 13.0726C10.041 12.1602 9.14438 11.4381 7.99967 11.4381V13.8381ZM8.48783 14.2726L8.56116 14.3993L10.6382 13.1968L10.5649 13.0701L8.48783 14.2726ZM8.55778 14.3934C8.80421 14.8247 9.21279 15.1249 9.68196 15.2422L10.2641 12.9139C10.4132 12.9512 10.5551 13.0514 10.6416 13.2027L8.55778 14.3934ZM9.68196 15.2422C10.1198 15.3517 10.6113 15.3065 11.0437 15.047L9.80895 12.9891C9.97469 12.8896 10.1462 12.8844 10.2641 12.9139L9.68196 15.2422ZM11.0269 15.057L12.1802 14.3903L10.9791 12.3125L9.82581 12.9791L11.0269 15.057ZM12.1793 14.3908C12.6172 14.1382 12.9602 13.7148 13.0992 13.1939L10.7802 12.5755C10.8124 12.4546 10.8888 12.3646 10.98 12.312L12.1793 14.3908ZM13.0992 13.1939C13.2321 12.6953 13.1687 12.1608 12.9058 11.7051L10.8269 12.9044C10.764 12.7953 10.7539 12.6742 10.7802 12.5755L13.0992 13.1939ZM12.9036 11.7014C12.6725 11.3039 12.7523 11.0996 12.7749 11.0601L10.6911 9.86936C10.127 10.8565 10.3002 11.9989 10.829 12.9081L12.9036 11.7014ZM12.7749 11.0601C12.791 11.0318 12.9181 10.8581 13.393 10.8581V8.45806C12.3479 8.45806 11.2616 8.87094 10.6911 9.86936L12.7749 11.0601ZM13.393 10.8581C14.4824 10.8581 15.3597 9.9808 15.3597 8.89139H12.9597C12.9597 8.65531 13.1569 8.45806 13.393 8.45806V10.8581ZM15.3597 8.89139V7.71806H12.9597V8.89139H15.3597ZM15.3597 7.71806C15.3597 6.64212 14.4892 5.75139 13.393 5.75139V8.15139C13.1501 8.15139 12.9597 7.95399 12.9597 7.71806H15.3597ZM13.393 5.75139C12.9181 5.75139 12.791 5.57761 12.7749 5.54936L10.6911 6.74009C11.2616 7.7385 12.3479 8.15139 13.393 8.15139V5.75139ZM12.7749 5.54936C12.7523 5.50985 12.6725 5.30553 12.9036 4.90805L10.829 3.70139C10.3002 4.61058 10.127 5.75293 10.6911 6.74009L12.7749 5.54936ZM12.9058 4.90439C13.1687 4.44863 13.2321 3.91419 13.0992 3.41553L10.7802 4.03392C10.7539 3.93525 10.764 3.81415 10.8269 3.70506L12.9058 4.90439ZM13.0992 3.41553C12.9607 2.89628 12.6296 2.49105 12.2153 2.23607L10.9574 4.28005C10.9267 4.26115 10.8897 4.23092 10.8554 4.18608C10.8204 4.14041 10.7946 4.08778 10.7802 4.03392L13.0992 3.41553ZM12.1824 2.21653L11.029 1.55653L9.83699 3.63958L10.9903 4.29958L12.1824 2.21653ZM11.0539 1.57118C10.1769 1.04089 9.06131 1.35904 8.5599 2.20758L10.6261 3.42853C10.4714 3.6904 10.1158 3.80855 9.8121 3.62493L11.0539 1.57118ZM8.5545 2.21681L8.48116 2.34348L10.5582 3.54597L10.6315 3.4193L8.5545 2.21681ZM8.47973 2.34596C8.24505 2.75357 8.03497 2.77806 7.99301 2.77806V5.17806C9.13771 5.17806 10.0343 4.45588 10.5596 3.54348L8.47973 2.34596ZM7.99301 2.77806C7.95104 2.77806 7.74097 2.75357 7.50629 2.34596L5.42639 3.54348C5.95171 4.45588 6.8483 5.17806 7.99301 5.17806V2.77806ZM7.5178 2.36642L7.44447 2.23309L5.34155 3.38969L5.41488 3.52302L7.5178 2.36642ZM7.42416 2.19761C6.92302 1.3557 5.82211 1.06128 4.9632 1.56065L6.16949 3.63546C5.88391 3.8015 5.52966 3.70708 5.36186 3.42517L7.42416 2.19761ZM4.96581 1.55913L3.81247 2.2258L5.01354 4.30364L6.16687 3.63698L4.96581 1.55913ZM3.81334 2.2253C3.37547 2.47792 3.03244 2.90128 2.89353 3.42219L5.21249 4.04058C5.18025 4.16149 5.10388 4.25153 5.01267 4.30414L3.81334 2.2253ZM2.89353 3.42219C2.76055 3.92086 2.82398 4.4553 3.08692 4.91106L5.16576 3.71172C5.2287 3.82081 5.2388 3.94192 5.21249 4.04058L2.89353 3.42219ZM3.08904 4.91472C3.32023 5.3122 3.24036 5.51651 3.21778 5.55602L5.30157 6.74676C5.86566 5.7596 5.69245 4.61724 5.16364 3.70806L3.08904 4.91472ZM3.21778 5.55602C3.20164 5.58428 3.07456 5.75806 2.59967 5.75806V8.15806C3.64479 8.15806 4.73104 7.74517 5.30157 6.74676L3.21778 5.55602ZM2.59967 5.75806C1.51027 5.75806 0.633008 6.63531 0.633008 7.72472H3.03301C3.03301 7.9608 2.83575 8.15806 2.59967 8.15806V5.75806ZM0.633008 7.72472V8.89806H3.03301V7.72472H0.633008ZM0.633008 8.89806C0.633008 9.97399 1.50348 10.8647 2.59967 10.8647V8.46472C2.84253 8.46472 3.03301 8.66212 3.03301 8.89806H0.633008ZM2.59967 10.8647C3.07456 10.8647 3.20164 11.0385 3.21778 11.0668L5.30157 9.87602C4.73105 8.87761 3.64479 8.46472 2.59967 8.46472V10.8647ZM3.21778 11.0668C3.24036 11.1063 3.32023 11.3106 3.08904 11.7081L5.16364 12.9147C5.69245 12.0055 5.86566 10.8632 5.30157 9.87602L3.21778 11.0668ZM3.08692 11.7117C2.82398 12.1675 2.76055 12.7019 2.89353 13.2006L5.21249 12.5822C5.2388 12.6809 5.2287 12.802 5.16576 12.9111L3.08692 11.7117ZM2.89353 13.2006C3.03199 13.7198 3.36308 14.1251 3.77742 14.38L5.03526 12.3361C5.06596 12.355 5.10298 12.3852 5.13733 12.43C5.17231 12.4757 5.19813 12.5283 5.21249 12.5822L2.89353 13.2006ZM3.81033 14.3996L4.96366 15.0596L6.15569 12.9765L5.00236 12.3165L3.81033 14.3996ZM4.92805 15.0384C5.36489 15.3088 5.87232 15.3633 6.32258 15.2459L5.71677 12.9236C5.86037 12.8861 6.03446 12.9006 6.1913 12.9977L4.92805 15.0384ZM6.31072 15.2489C6.81143 15.1237 7.19042 14.8005 7.41999 14.4297L5.37936 13.1664C5.4356 13.0756 5.54791 12.9657 5.72863 12.9206L6.31072 15.2489ZM7.43819 14.3993L7.51152 14.2726L5.4345 13.0701L5.36116 13.1968L7.43819 14.3993ZM7.51031 14.2747C7.74935 13.8637 7.9627 13.8381 7.99967 13.8381V11.4381C6.84998 11.4381 5.95667 12.1724 5.43571 13.0681L7.51031 14.2747Z" fill="#076007" mask="url(#path-3-inside-2)"/>
</svg>
