<svg width="24" height="25" viewBox="0 0 24 25" fill="none" xmlns="http://www.w3.org/2000/svg">
<path d="M7 8.03516H21.5L18.5 17.5352H9.5L7 8.03516Z" fill="#444444"/>
<path d="M1.16806 2.98056C1.47441 2.52103 2.09528 2.39686 2.55481 2.70321L7.05481 5.70321C7.26797 5.84532 7.41846 6.06382 7.47524 6.31364L9.79834 16.5353H18.2519L18.8401 14.5352H12.0001C11.4478 14.5352 11.0001 14.0875 11.0001 13.5352C11.0001 12.983 11.4478 12.5352 12.0001 12.5352H19.4283L20.1636 10.0353H12.0001C11.4478 10.0353 11.0001 9.58755 11.0001 9.03526C11.0001 8.48298 11.4478 8.03526 12.0001 8.03526H21.5001C21.8153 8.03526 22.112 8.18383 22.3008 8.43617C22.4896 8.6885 22.5484 9.01508 22.4595 9.31743L19.9595 17.8174C19.8343 18.243 19.4437 18.5353 19.0001 18.5353H9.00011C8.53321 18.5353 8.12845 18.2122 8.02497 17.7569L5.6134 7.14598L1.44541 4.36731C0.985877 4.06096 0.861704 3.44009 1.16806 2.98056Z" fill="#444444"/>
<path d="M11.5001 21.2852C11.5001 22.2517 10.7166 23.0352 9.75011 23.0352C8.78361 23.0352 8.00011 22.2517 8.00011 21.2852C8.00011 20.3188 8.78361 19.5352 9.75011 19.5352C10.7166 19.5352 11.5001 20.3188 11.5001 21.2852Z" fill="#444444"/>
<path d="M20.0001 21.2852C20.0001 22.2517 19.2166 23.0352 18.2501 23.0352C17.2836 23.0352 16.5001 22.2517 16.5001 21.2852C16.5001 20.3188 17.2836 19.5352 18.2501 19.5352C19.2166 19.5352 20.0001 20.3188 20.0001 21.2852Z" fill="#444444"/>
</svg>
