<svg width="24" height="24" viewBox="0 0 24 24" fill="none" xmlns="http://www.w3.org/2000/svg">
<path d="M0.627608 1.46713C0.948902 0.985189 1.60005 0.854958 2.082 1.17625L6.80148 4.32258C7.02504 4.47162 7.18287 4.70077 7.24242 4.96278L9.67882 15.683H18.5447L19.1616 13.5854H11.988C11.4088 13.5854 10.9392 13.1158 10.9392 12.5366C10.9392 11.9574 11.4088 11.4878 11.988 11.4878H19.7785L20.5497 8.86592H11.988C11.4088 8.86592 10.9392 8.39637 10.9392 7.81714C10.9392 7.23792 11.4088 6.76837 11.988 6.76837H21.9513C22.2819 6.76837 22.5931 6.92418 22.7911 7.18883C22.9891 7.45347 23.0508 7.79598 22.9575 8.11307L20.3356 17.0277C20.2043 17.474 19.7946 17.7805 19.3294 17.7805H8.84166C8.35199 17.7805 7.92749 17.4417 7.81897 16.9642L5.28977 5.83571L0.918485 2.92152C0.436543 2.60022 0.306313 1.94907 0.627608 1.46713Z" fill="#EAEBF0"/>
<path d="M11.4636 20.6646C11.4636 21.6783 10.6419 22.5 9.62824 22.5C8.6146 22.5 7.79289 21.6783 7.79289 20.6646C7.79289 19.651 8.6146 18.8293 9.62824 18.8293C10.6419 18.8293 11.4636 19.651 11.4636 20.6646Z" fill="#EAEBF0"/>
<path d="M20.3782 20.6646C20.3782 21.6783 19.5565 22.5 18.5428 22.5C17.5292 22.5 16.7075 21.6783 16.7075 20.6646C16.7075 19.651 17.5292 18.8293 18.5428 18.8293C19.5565 18.8293 20.3782 19.651 20.3782 20.6646Z" fill="#EAEBF0"/>
</svg>
