<svg width="27" height="26" viewBox="0 0 27 26" fill="none" xmlns="http://www.w3.org/2000/svg">
<path fill-rule="evenodd" clip-rule="evenodd" d="M0.730469 3V10.7574C0.730469 11.553 1.04654 12.3161 1.60915 12.8787L13.2758 24.5453C14.4474 25.7169 16.3469 25.7169 17.5185 24.5453L25.2758 16.788C26.4474 15.6164 26.4474 13.7169 25.2758 12.5453L13.6091 0.87868C13.0465 0.316071 12.2835 0 11.4878 0H3.73047C2.07361 0 0.730469 1.34315 0.730469 3ZM8.73047 10.6667C10.2032 10.6667 11.3971 9.47276 11.3971 8C11.3971 6.52724 10.2032 5.33333 8.73047 5.33333C7.25771 5.33333 6.0638 6.52724 6.0638 8C6.0638 9.47276 7.25771 10.6667 8.73047 10.6667Z" fill="#1A8917"/>
</svg>
