<svg width="24" height="24" viewBox="0 0 24 24" fill="none" xmlns="http://www.w3.org/2000/svg">
<path fill-rule="evenodd" clip-rule="evenodd" d="M1.25 12C1.25 6.06294 6.06294 1.25 12 1.25C17.9371 1.25 22.75 6.06294 22.75 12C22.75 17.9371 17.9371 22.75 12 22.75C6.06294 22.75 1.25 17.9371 1.25 12ZM4.91794 6.04931C3.56502 7.65777 2.75 9.73371 2.75 12C2.75 14.2663 3.56502 16.3422 4.91794 17.9507L7.40781 15.4608C6.68141 14.4982 6.25 13.299 6.25 12C6.25 10.701 6.68141 9.50179 7.40781 8.53918L4.91794 6.04931ZM8.99465 8.99465L8.96486 9.02503C8.2126 9.79239 7.75 10.8414 7.75 12C7.75 13.1586 8.2126 14.2076 8.96486 14.975L8.99465 15.0054L9.02503 15.0351C9.79239 15.7874 10.8414 16.25 12 16.25C13.1586 16.25 14.2076 15.7874 14.975 15.0351L15.0054 15.0054L15.0351 14.975C15.7874 14.2076 16.25 13.1586 16.25 12C16.25 10.8414 15.7874 9.79239 15.0351 9.02503L15.0054 8.99465L14.975 8.96486C14.2076 8.2126 13.1586 7.75 12 7.75C10.8414 7.75 9.79239 8.2126 9.02503 8.96486L8.99465 8.99465ZM16.5922 8.53918C17.3186 9.50179 17.75 10.701 17.75 12C17.75 13.299 17.3186 14.4982 16.5922 15.4608L19.0821 17.9507C20.435 16.3422 21.25 14.2663 21.25 12C21.25 9.73371 20.435 7.65777 19.0821 6.04931L16.5922 8.53918ZM17.9507 4.91794C16.3422 3.56502 14.2663 2.75 12 2.75C9.73371 2.75 7.65777 3.56502 6.04931 4.91794L8.53918 7.40781C9.50179 6.68141 10.701 6.25 12 6.25C13.299 6.25 14.4982 6.68141 15.4608 7.40781L17.9507 4.91794ZM15.4608 16.5922L17.9507 19.0821C16.3422 20.435 14.2663 21.25 12 21.25C9.73371 21.25 7.65777 20.435 6.04931 19.0821L8.53918 16.5922C9.50179 17.3186 10.701 17.75 12 17.75C13.299 17.75 14.4982 17.3186 15.4608 16.5922Z" fill="#EAEBF0"/>
</svg>
