<svg width="15" height="15" viewBox="0 0 15 15" fill="none" xmlns="http://www.w3.org/2000/svg">
<g opacity="0.4">
<path d="M6.69449 1.40325L5.50891 1.40479C2.54496 1.40862 1.36091 2.59574 1.36474 5.55969L1.36935 9.11643C1.37318 12.0804 2.5603 13.2644 5.52425 13.2606L9.08099 13.256C12.0449 13.2522 13.229 12.065 13.2252 9.10109L13.2236 7.91551" fill="#C2C3CC"/>
<path d="M6.69449 1.40325L5.50891 1.40479C2.54496 1.40862 1.36091 2.59574 1.36474 5.55969L1.36935 9.11643C1.37318 12.0804 2.5603 13.2644 5.52425 13.2606L9.08099 13.256C12.0449 13.2522 13.229 12.065 13.2252 9.10109L13.2236 7.91551" stroke="#919191" stroke-width="0.889186" stroke-linecap="round" stroke-linejoin="round"/>
</g>
<path d="M9.68235 2.00449L5.0172 6.68172C4.8396 6.85979 4.66221 7.20976 4.62697 7.46471L4.37438 9.24934C4.28037 9.8956 4.7374 10.3455 5.38343 10.2558L7.1674 9.99857C7.41633 9.96268 7.76584 9.78439 7.94938 9.60631L12.6145 4.92908C13.4197 4.12184 13.7978 3.18474 12.6107 2.0007C11.4236 0.816652 10.4875 1.19725 9.68235 2.00449Z" fill="#C2C3CC" stroke="#919191" stroke-width="0.889186" stroke-miterlimit="10" stroke-linecap="round" stroke-linejoin="round"/>
<g opacity="0.4">
<path d="M9.01562 2.67578C9.41463 4.09204 10.5246 5.19912 11.9478 5.60038L9.01562 2.67578Z" fill="#C2C3CC"/>
<path d="M9.01562 2.67578C9.41463 4.09204 10.5246 5.19912 11.9478 5.60038" stroke="#919191" stroke-width="0.889186" stroke-miterlimit="10" stroke-linecap="round" stroke-linejoin="round"/>
</g>
</svg>
