<svg width="25" height="25" viewBox="0 0 25 25" fill="none" xmlns="http://www.w3.org/2000/svg">
<path fill-rule="evenodd" clip-rule="evenodd" d="M20.0039 4.00666L4.0039 4.02737C2.34705 4.02951 1.00564 5.37439 1.00779 7.03125L1.00921 8.13125L23.0092 8.10278L23.0078 7.00278C23.0056 5.34592 21.6607 4.00452 20.0039 4.00666ZM1.02073 17.0312L1.01154 9.93125L23.0115 9.90277L23.0207 17.0028C23.0229 18.6596 21.6814 20.0045 20.0246 20.0066L4.02461 20.0274C2.36776 20.0295 1.02287 18.6881 1.02073 17.0312ZM13.017 14.1157C12.5199 14.1164 12.1175 14.5198 12.1181 15.0169C12.1188 15.5139 12.5222 15.9164 13.0193 15.9157L18.0193 15.9092C18.5163 15.9086 18.9188 15.5051 18.9181 15.0081C18.9175 14.511 18.514 14.1086 18.017 14.1092L13.017 14.1157Z" fill="#444444"/>
</svg>
