<svg width="15" height="15" viewBox="0 0 15 15" fill="none" xmlns="http://www.w3.org/2000/svg">
<path d="M13.1302 3.10463C12.1757 3.01102 11.2212 2.94112 10.2608 2.88901L10.2608 2.88308L10.1294 2.11262C10.0398 1.56737 9.90833 0.749491 8.5212 0.751286L6.96809 0.753296C5.58689 0.755083 5.45749 1.53774 5.36339 2.11286L5.23988 2.8718C4.68863 2.90808 4.13738 2.94436 3.58616 2.99842L2.37702 3.11855C2.12808 3.14258 1.95053 3.36214 1.97455 3.60516C1.99858 3.84817 2.21221 4.02573 2.46115 4.0017L3.67029 3.88157C6.77611 3.5693 9.9062 3.68381 13.0484 3.99392C13.0662 3.9939 13.078 3.99389 13.0958 3.99386C13.3211 3.99357 13.5165 3.82141 13.5399 3.59019C13.5574 3.34712 13.3792 3.12802 13.1302 3.10463Z" fill="#C2C3CC"/>
<path d="M12.0404 4.82921C11.898 4.68119 11.7022 4.59846 11.5007 4.59872L4.00781 4.60841C3.80626 4.60868 3.60482 4.69193 3.46867 4.8403C3.33252 4.98868 3.25572 5.19032 3.26784 5.39778L3.64324 11.4793C3.70961 12.3803 3.79406 13.5065 5.8629 13.5038L9.66861 13.4989C11.7375 13.4962 11.819 12.3757 11.883 11.4687L12.2427 5.3921C12.2543 5.17868 12.1769 4.97723 12.0404 4.82921ZM8.74595 10.5302L6.77195 10.5328C6.52891 10.5331 6.3271 10.3318 6.32679 10.0887C6.32647 9.84569 6.52776 9.64388 6.7708 9.64356L8.74479 9.64101C8.98784 9.6407 9.18965 9.84198 9.18996 10.085C9.19028 10.3281 8.98899 10.5299 8.74595 10.5302ZM9.24082 8.15839L6.27687 8.16223C6.03383 8.16254 5.83202 7.96125 5.8317 7.71821C5.83139 7.47516 6.03267 7.27335 6.27572 7.27304L9.23967 7.2692C9.48271 7.26889 9.68452 7.47018 9.68484 7.71322C9.68515 7.95627 9.48386 8.15808 9.24082 8.15839Z" fill="#C2C3CC"/>
</svg>
