<svg width="24" height="24" viewBox="0 0 24 24" fill="none" xmlns="http://www.w3.org/2000/svg">
<path d="M12 12C6.47717 12 2 16.4772 2 22C2 22.5523 2.44772 23 3 23C3.55228 23 4 22.5523 4 22C4 17.5817 7.58173 14 12 14C16.4183 14 20 17.5817 20 22C20 22.5523 20.4477 23 21 23C21.5523 23 22 22.5523 22 22C22 16.4772 17.5228 12 12 12Z" fill="#EAEBF0"/>
<path fill-rule="evenodd" clip-rule="evenodd" d="M12 9.2C13.7673 9.2 15.2 7.76731 15.2 6C15.2 4.23269 13.7673 2.8 12 2.8C10.2327 2.8 8.8 4.23269 8.8 6C8.8 7.76731 10.2327 9.2 12 9.2ZM12 11C14.7614 11 17 8.76142 17 6C17 3.23858 14.7614 1 12 1C9.23858 1 7 3.23858 7 6C7 8.76142 9.23858 11 12 11Z" fill="#EAEBF0"/>
</svg>
