<svg width="42" height="43" viewBox="0 0 42 43" fill="none" xmlns="http://www.w3.org/2000/svg">
<path fill-rule="evenodd" clip-rule="evenodd" d="M4.37729 8.37729C6.10139 6.65319 8.79991 6.25 12.2789 6.25H29.7204C33.1993 6.25 35.8978 6.65319 37.6219 8.37729C39.346 10.1014 39.7492 12.7999 39.7492 16.2789V18.023C39.7492 18.7455 39.1636 19.3311 38.4411 19.3311C36.7566 19.3311 35.3888 20.6989 35.3888 22.3834C35.3888 24.0679 36.7566 25.4356 38.4411 25.4356C39.1636 25.4356 39.7492 26.0213 39.7492 26.7438C39.7492 30.2227 39.346 32.9212 37.6219 34.6453C35.8978 36.3694 33.1993 36.7726 29.7204 36.7726H12.2789C8.79991 36.7726 6.10139 36.3694 4.37729 34.6453C2.65319 32.9212 2.25 30.2227 2.25 26.7438V25.8717C2.25 25.1492 2.83566 24.5636 3.55811 24.5636C5.24259 24.5636 6.61037 23.1958 6.61037 21.5113C6.61037 19.8268 5.24259 18.459 3.55811 18.459C2.83566 18.459 2.25 17.8734 2.25 17.1509V16.2789C2.25 12.7999 2.65319 10.1014 4.37729 8.37729ZM4.86728 15.9949C7.36601 16.5862 9.2266 18.8325 9.2266 21.5113C9.2266 24.1901 7.36601 26.4364 4.86728 27.0277C4.89229 30.3321 5.35961 31.9278 6.22724 32.7954C7.11936 33.6875 8.78121 34.1564 12.2789 34.1564H29.7204C33.218 34.1564 34.8799 33.6875 35.772 32.7954C36.5599 32.0074 37.0177 30.619 37.1139 27.8955C34.6243 27.2977 32.7726 25.0557 32.7726 22.3834C32.7726 19.7042 34.6337 17.4577 37.133 16.8667V16.2789C37.133 12.7812 36.6641 11.1194 35.772 10.2272C34.8799 9.33511 33.218 8.86622 29.7204 8.86622H12.2789C8.78121 8.86622 7.11936 9.33511 6.22724 10.2272C5.35961 11.0949 4.89229 12.6905 4.86728 15.9949Z" fill="#919191"/>
<path fill-rule="evenodd" clip-rule="evenodd" d="M17.5112 6.25C18.2337 6.25 18.8193 6.83566 18.8193 7.55811L18.8193 11.0464C18.8193 11.7689 18.2337 12.3545 17.5112 12.3545C16.7888 12.3545 16.2031 11.7689 16.2031 11.0464L16.2031 7.55811C16.2031 6.83566 16.7888 6.25 17.5112 6.25ZM17.5112 16.7149C18.2337 16.7149 18.8193 17.3006 18.8193 18.023L18.8193 24.9996C18.8193 25.7221 18.2337 26.3077 17.5112 26.3077C16.7888 26.3077 16.2031 25.7221 16.2031 24.9996L16.2031 18.023C16.2031 17.3006 16.7888 16.7149 17.5112 16.7149ZM17.5112 30.6681C18.2337 30.6681 18.8193 31.2538 18.8193 31.9762L18.8193 35.4645C18.8193 36.187 18.2337 36.7726 17.5112 36.7726C16.7888 36.7726 16.2031 36.187 16.2031 35.4645L16.2031 31.9762C16.2031 31.2538 16.7888 30.6681 17.5112 30.6681Z" fill="#919191"/>
</svg>
