<svg width="36" height="36" viewBox="0 0 36 36" fill="none" xmlns="http://www.w3.org/2000/svg">
<path d="M33.75 5.625H12.375C12.0758 5.625 11.79 5.74425 11.5785 5.9535L10.125 7.40925L8.6715 5.9535C8.46 5.74425 8.17425 5.625 7.875 5.625H2.25C1.01025 5.625 0 6.63525 0 7.875V28.125C0 29.367 1.01025 30.375 2.25 30.375H7.875C8.17425 30.375 8.46 30.2558 8.6715 30.0465L10.125 28.5907L11.5785 30.0442C11.79 30.2557 12.0758 30.375 12.375 30.375H33.75C34.992 30.375 36 29.367 36 28.125V7.875C36 6.63525 34.992 5.625 33.75 5.625Z" fill="#4CAF50"/>
<path d="M19.125 16.875C17.2642 16.875 15.75 15.3608 15.75 13.5C15.75 11.6392 17.2642 10.125 19.125 10.125C20.9858 10.125 22.5 11.6392 22.5 13.5C22.5 15.3608 20.9858 16.875 19.125 16.875ZM19.125 12.375C18.504 12.375 18 12.879 18 13.5C18 14.121 18.504 14.625 19.125 14.625C19.746 14.625 20.25 14.121 20.25 13.5C20.25 12.879 19.746 12.375 19.125 12.375Z" fill="#FAFAFA"/>
<path d="M25.875 25.875C24.0142 25.875 22.5 24.3608 22.5 22.5C22.5 20.6392 24.0142 19.125 25.875 19.125C27.7358 19.125 29.25 20.6392 29.25 22.5C29.25 24.3608 27.7358 25.875 25.875 25.875ZM25.875 21.375C25.2562 21.375 24.75 21.8812 24.75 22.5C24.75 23.1188 25.2562 23.625 25.875 23.625C26.4938 23.625 27 23.1188 27 22.5C27 21.8812 26.4938 21.375 25.875 21.375Z" fill="#FAFAFA"/>
<path d="M16.8749 25.8738C16.6206 25.8738 16.3664 25.7883 16.1549 25.6128C15.6779 25.2145 15.6126 24.5058 16.0109 24.0288L27.2609 10.5288C27.6614 10.0495 28.3701 9.99102 28.8449 10.3848C29.3219 10.783 29.3849 11.4918 28.9866 11.971L17.7366 25.471C17.5161 25.7343 17.1966 25.8738 16.8749 25.8738Z" fill="#FAFAFA"/>
<path d="M11.25 10.125H9V12.375H11.25V10.125Z" fill="#FAFAFA"/>
<path d="M11.25 23.625H9V25.875H11.25V23.625Z" fill="#FAFAFA"/>
<path d="M11.25 19.125H9V21.375H11.25V19.125Z" fill="#FAFAFA"/>
<path d="M11.25 14.625H9V16.875H11.25V14.625Z" fill="#FAFAFA"/>
</svg>
