<svg width="16" height="17" viewBox="0 0 16 17" fill="none" xmlns="http://www.w3.org/2000/svg">
<path d="M8.66699 6.31055H4.66699" stroke="#E9750E" stroke-width="1.2" stroke-linecap="round" stroke-linejoin="round"/>
<path d="M14.6665 7.62333V8.9967C14.6665 9.36337 14.3732 9.66334 13.9998 9.67668H12.6931C11.9731 9.67668 11.3132 9.15001 11.2532 8.43001C11.2132 8.01001 11.3731 7.61668 11.6531 7.34334C11.8998 7.09001 12.2398 6.94336 12.6131 6.94336H13.9998C14.3732 6.95669 14.6665 7.25667 14.6665 7.62333Z" stroke="#E9750E" stroke-width="1.2" stroke-linecap="round" stroke-linejoin="round"/>
<path d="M11.653 7.34452C11.373 7.61786 11.213 8.01119 11.253 8.43119C11.313 9.15119 11.973 9.67786 12.693 9.67786H13.9997V10.6445C13.9997 12.6445 12.6663 13.9779 10.6663 13.9779H4.66634C2.66634 13.9779 1.33301 12.6445 1.33301 10.6445V5.97786C1.33301 4.16453 2.42634 2.89786 4.12634 2.68453C4.29968 2.65786 4.47967 2.64453 4.66634 2.64453H10.6663C10.8397 2.64453 11.0063 2.65119 11.1663 2.67786C12.8863 2.87786 13.9997 4.1512 13.9997 5.97786V6.94454H12.613C12.2397 6.94454 11.8997 7.09119 11.653 7.34452Z" stroke="#E9750E" stroke-width="1.2" stroke-linecap="round" stroke-linejoin="round"/>
</svg>
