<svg width="20" height="20" viewBox="0 0 20 20" fill="none" xmlns="http://www.w3.org/2000/svg">
<g clip-path="url(#clip0)">
<path d="M19.6014 5.15508C19.4883 4.72959 19.2654 4.34126 18.9551 4.02896C18.6448 3.71665 18.2579 3.49133 17.8332 3.37553C16.2695 2.95508 10.0195 2.95508 10.0195 2.95508C10.0195 2.95508 3.76953 2.95508 2.20589 3.37553C1.78114 3.49133 1.39425 3.71665 1.08394 4.02896C0.773628 4.34126 0.550786 4.72959 0.437713 5.15508C0.0195313 6.72553 0.0195312 10.0005 0.0195312 10.0005C0.0195312 10.0005 0.0195313 13.2755 0.437713 14.846C0.550786 15.2715 0.773628 15.6598 1.08394 15.9721C1.39425 16.2844 1.78114 16.5097 2.20589 16.6255C3.76953 17.046 10.0195 17.046 10.0195 17.046C10.0195 17.046 16.2695 17.046 17.8332 16.6255C18.2579 16.5097 18.6448 16.2844 18.9551 15.9721C19.2654 15.6598 19.4883 15.2715 19.6014 14.846C20.0195 13.2755 20.0195 10.0005 20.0195 10.0005C20.0195 10.0005 20.0195 6.72553 19.6014 5.15508Z" fill="#EAEBF0"/>
<path d="M7.97461 12.9731V7.02539L13.2019 9.99925L7.97461 12.9731Z" fill="#444444"/>
</g>
<defs>
<clipPath id="clip0">
<rect width="20" height="20" fill="white"/>
</clipPath>
</defs>
</svg>
