<svg width="25" height="25" viewBox="0 0 25 25" fill="none" xmlns="http://www.w3.org/2000/svg">
<path d="M16.192 2.13867H7.81195C4.17195 2.13867 2.00195 4.30867 2.00195 7.94867V16.3187C2.00195 19.9687 4.17195 22.1387 7.81195 22.1387H16.182C19.822 22.1387 21.992 19.9687 21.992 16.3287V7.94867C22.002 4.30867 19.832 2.13867 16.192 2.13867ZM9.60195 16.3387C9.60195 17.3287 8.79195 18.1387 7.80195 18.1387C6.81195 18.1387 6.00195 17.3287 6.00195 16.3387C6.00195 15.3487 6.81195 14.5387 7.80195 14.5387H8.60195C9.15195 14.5387 9.60195 14.9887 9.60195 15.5387V16.3387ZM9.60195 8.73867C9.60195 9.28867 9.15195 9.73867 8.60195 9.73867H7.80195C6.81195 9.73867 6.00195 8.92867 6.00195 7.93867C6.00195 6.94867 6.81195 6.13867 7.80195 6.13867C8.79195 6.13867 9.60195 6.94867 9.60195 7.93867V8.73867ZM14.152 13.3887C14.152 13.8787 13.752 14.2887 13.252 14.2887H10.742C10.252 14.2887 9.84195 13.8887 9.84195 13.3887V10.8787C9.84195 10.3887 10.242 9.97867 10.742 9.97867H13.252C13.742 9.97867 14.152 10.3787 14.152 10.8787V13.3887ZM16.202 18.1387C15.212 18.1387 14.402 17.3287 14.402 16.3387V15.5387C14.402 14.9887 14.852 14.5387 15.402 14.5387H16.202C17.192 14.5387 18.002 15.3487 18.002 16.3387C18.002 17.3287 17.192 18.1387 16.202 18.1387ZM16.202 9.73867H15.402C14.852 9.73867 14.402 9.28867 14.402 8.73867V7.93867C14.402 6.94867 15.212 6.13867 16.202 6.13867C17.192 6.13867 18.002 6.94867 18.002 7.93867C18.002 8.92867 17.192 9.73867 16.202 9.73867Z" fill="#444444"/>
</svg>
