<svg width="24" height="24" viewBox="0 0 24 24" fill="none" xmlns="http://www.w3.org/2000/svg">
<circle cx="12" cy="12" r="12" fill="#1A8917"/>
<path d="M16.1403 18H8.86159C8.5294 18.0002 8.22759 17.7969 8.08759 17.479C7.93858 17.1539 7.98217 16.767 8.19951 16.488C8.21544 16.4672 8.23304 16.4479 8.2519 16.43L12.5733 12.3736C12.6744 12.2787 12.7322 12.1428 12.7322 12.0001C12.7322 11.8574 12.6744 11.7213 12.5733 11.6266L8.2519 7.57C8.23304 7.5523 8.21544 7.53283 8.19951 7.51203C7.98217 7.23303 7.93858 6.84606 8.08759 6.52105C8.22759 6.20311 8.5294 5.99978 8.86159 6H16.1403C16.619 6.00509 17.0033 6.41794 17 6.92306V8.1926C17 8.46872 16.7879 8.69263 16.5263 8.69263C16.2648 8.69263 16.0527 8.46872 16.0527 8.1926V7.00006H9.07033L13.2029 10.879C13.5062 11.1638 13.6797 11.5715 13.6797 12.0001C13.6797 12.4285 13.5062 12.8364 13.2029 13.121L9.07033 16.9999H16.0527V15.8074C16.0527 15.5313 16.2648 15.3076 16.5263 15.3076C16.7879 15.3076 17 15.5313 17 15.8074V17.0769C17.0033 17.5823 16.619 17.9951 16.1403 18Z" fill="white"/>
</svg>
