<svg width="25" height="25" viewBox="0 0 25 25" fill="none" xmlns="http://www.w3.org/2000/svg">
<path d="M18.5427 4.25852L13.0427 2.19852C12.4727 1.98852 11.5427 1.98852 10.9727 2.19852L5.47273 4.25852C4.41273 4.65852 3.55273 5.89852 3.55273 7.02852V15.1285C3.55273 15.9385 4.08273 17.0085 4.73273 17.4885L10.2327 21.5985C11.2027 22.3285 12.7927 22.3285 13.7627 21.5985L19.2627 17.4885C19.9127 16.9985 20.4427 15.9385 20.4427 15.1285V7.02852C20.4527 5.89852 19.5927 4.65852 18.5427 4.25852ZM15.4827 9.85852L11.1827 14.1585C11.0327 14.3085 10.8427 14.3785 10.6527 14.3785C10.4627 14.3785 10.2727 14.3085 10.1227 14.1585L8.52273 12.5385C8.23273 12.2485 8.23273 11.7685 8.52273 11.4785C8.81273 11.1885 9.29273 11.1885 9.58273 11.4785L10.6627 12.5585L14.4327 8.78852C14.7227 8.49852 15.2027 8.49852 15.4927 8.78852C15.7827 9.07852 15.7827 9.56852 15.4827 9.85852Z" fill="#444444"/>
</svg>
