<svg width="24" height="25" viewBox="0 0 24 25" fill="none" xmlns="http://www.w3.org/2000/svg">
<path d="M6.73 19.8055C7.55 18.9255 8.8 18.9955 9.52 19.9555L10.53 21.3055C11.34 22.3755 12.65 22.3755 13.46 21.3055L14.47 19.9555C15.19 18.9955 16.44 18.9255 17.26 19.8055C19.04 21.7055 20.49 21.0755 20.49 18.4155V7.14547C20.5 3.11547 19.56 2.10547 15.78 2.10547H8.22C4.44 2.10547 3.5 3.11547 3.5 7.14547V18.4055C3.5 21.0755 4.96 21.6955 6.73 19.8055Z" stroke="#076007" stroke-width="1.5" stroke-linecap="round" stroke-linejoin="round"/>
<path d="M8.09607 11.1055H8.10505" stroke="#076007" stroke-width="2" stroke-linecap="round" stroke-linejoin="round"/>
<path d="M10.8984 11.1055H16.3984" stroke="#076007" stroke-width="1.5" stroke-linecap="round" stroke-linejoin="round"/>
<path d="M8.09607 7.10547H8.10505" stroke="#076007" stroke-width="2" stroke-linecap="round" stroke-linejoin="round"/>
<path d="M10.8984 7.10547H16.3984" stroke="#076007" stroke-width="1.5" stroke-linecap="round" stroke-linejoin="round"/>
</svg>
